<svg xmlns="http://www.w3.org/2000/svg" version="1.1" viewBox="1.654358983039856 1.3527268171310425 315.8365173339844 324.2972717285156" width="319.00" height="327.00">
<g stroke-width="2.00" fill="none" stroke-linecap="butt">
<path stroke="#112015" d="&#10;  M 132.32 320.70&#10;  L 133.97 320.74&#10;  Q 134.45 320.75 134.88 320.97&#10;  Q 135.61 321.33 136.39 320.73" data-c-stroke="112015"/>
<path stroke="#69142d" d="&#10;  M 136.39 320.73&#10;  Q 136.39 321.97 137.76 322.12&#10;  Q 140.52 322.43 143.61 322.22&#10;  Q 147.83 321.94 149.42 321.96&#10;  Q 165.63 322.13 181.13 322.33&#10;  Q 181.64 322.34 181.98 321.95&#10;  Q 182.64 321.17 182.46 319.55" data-c-stroke="69142d"/>
<path stroke="#8a8787" d="&#10;  M 182.46 319.55&#10;  Q 183.52 316.71 184.17 313.72&#10;  Q 185.07 309.55 185.74 307.90&#10;  Q 187.31 304.08 188.02 299.73&#10;  Q 188.50 296.81 190.06 291.52&#10;  Q 192.46 283.41 193.77 273.19&#10;  A 0.59 0.55 16.5 0 0 193.43 272.61&#10;  Q 193.14 272.49 192.51 272.60" data-c-stroke="8a8787"/>
<path stroke="#802758" d="&#10;  M 192.51 272.60&#10;  L 191.02 272.48" data-c-stroke="802758"/>
<path stroke="#621957" d="&#10;  M 191.02 272.48&#10;  Q 189.66 269.59 191.12 267.61&#10;  Q 192.87 265.24 195.27 265.60" data-c-stroke="621957"/>
<path stroke="#8c6284" d="&#10;  M 195.27 265.60&#10;  Q 195.24 266.66 196.45 266.69&#10;  Q 197.01 266.71 197.84 266.36&#10;  C 202.27 264.51 206.60 263.18 210.65 260.11" data-c-stroke="8c6284"/>
<path stroke="#771e62" d="&#10;  M 210.65 260.11&#10;  Q 215.75 256.98 221.15 253.68&#10;  C 224.84 251.43 226.78 249.22 229.66 246.52&#10;  Q 230.49 245.74 231.61 245.84&#10;  Q 233.52 245.99 235.48 245.91&#10;  Q 237.14 245.83 239.41 246.59&#10;  Q 245.76 248.72 250.80 250.86&#10;  Q 255.23 252.74 262.06 254.93&#10;  Q 268.76 257.08 273.23 259.53&#10;  Q 279.26 262.84 285.04 263.59" data-c-stroke="771e62"/>
<path stroke="#8c6284" d="&#10;  M 285.04 263.59&#10;  Q 288.08 265.27 290.80 261.54&#10;  Q 293.62 257.66 295.56 253.34&#10;  Q 298.73 246.31 299.42 244.61&#10;  Q 300.86 241.08 303.04 237.68&#10;  Q 306.54 232.20 307.48 231.23&#10;  Q 311.64 226.89 312.70 221.76&#10;  Q 312.92 220.70 312.71 219.87&#10;  Q 312.40 218.65 311.63 218.14&#10;  Q 302.48 212.15 295.01 207.99&#10;  Q 289.33 204.82 285.23 200.69&#10;  Q 282.01 197.44 279.58 195.53&#10;  Q 276.62 193.20 273.48 190.91" data-c-stroke="8c6284"/>
<path stroke="#771e62" d="&#10;  M 273.48 190.91&#10;  L 270.51 188.42" data-c-stroke="771e62"/>
<path stroke="#822472" d="&#10;  M 270.51 188.42&#10;  L 268.50 185.77" data-c-stroke="822472"/>
<path stroke="#300f4e" d="&#10;  M 268.50 185.77&#10;  Q 268.33 185.70 268.32 185.41" data-c-stroke="300f4e"/>
<path stroke="#102876" d="&#10;  M 268.32 185.41&#10;  Q 271.64 177.32 272.27 171.03&#10;  Q 273.30 160.79 271.45 147.93&#10;  C 271.05 145.15 269.82 142.27 269.22 139.33" data-c-stroke="102876"/>
<path stroke="#0e3d7c" d="&#10;  M 269.22 139.33&#10;  Q 272.76 136.73 276.14 134.03&#10;  Q 279.72 131.19 283.23 128.96&#10;  C 286.06 127.16 289.34 125.38 291.77 123.06&#10;  Q 292.93 121.95 294.00 120.91" data-c-stroke="0e3d7c"/>
<path stroke="#0f5c89" d="&#10;  M 294.00 120.91&#10;  C 296.45 118.60 298.29 115.96 300.96 114.04&#10;  Q 304.49 111.50 307.90 108.84&#10;  Q 310.97 106.45 311.34 105.95&#10;  Q 312.86 103.92 311.75 101.00&#10;  Q 309.11 94.12 305.26 89.49" data-c-stroke="0f5c89"/>
<path stroke="#388778" d="&#10;  M 305.26 89.49&#10;  Q 302.64 84.53 299.54 80.25&#10;  Q 297.98 78.09 297.08 75.49&#10;  Q 294.92 69.20 291.32 63.62" data-c-stroke="388778"/>
<path stroke="#0f5c89" d="&#10;  M 291.32 63.62&#10;  L 289.47 61.73&#10;  Q 289.11 61.36 288.61 61.52&#10;  C 284.83 62.76 281.55 63.55 277.16 64.89&#10;  Q 274.20 65.79 269.46 66.92&#10;  Q 267.02 67.50 259.43 70.25" data-c-stroke="0f5c89"/>
<path stroke="#0e3d7c" d="&#10;  M 259.43 70.25&#10;  Q 256.92 71.48 254.21 72.29&#10;  Q 250.81 73.30 248.93 74.03&#10;  Q 245.39 75.41 241.73 76.45&#10;  Q 241.11 76.63 238.03 78.03&#10;  Q 235.90 79.01 233.81 78.39&#10;  Q 233.33 78.25 229.26 76.02&#10;  Q 227.57 75.09 225.71 72.47&#10;  Q 223.20 68.94 217.57 65.44&#10;  Q 203.89 56.93 194.92 52.46" data-c-stroke="0e3d7c"/>
<path stroke="#0f5c89" d="&#10;  M 194.92 52.46&#10;  Q 190.34 33.28 187.18 15.70&#10;  C 186.57 12.30 184.98 9.52 183.11 6.93&#10;  A 3.81 3.81 0.0 0 0 180.03 5.36&#10;  Q 167.96 5.38 165.92 5.38&#10;  Q 159.88 5.40 152.59 5.70&#10;  Q 145.93 5.98 139.25 5.78&#10;  C 135.94 5.68 134.73 10.41 134.13 12.95" data-c-stroke="0f5c89"/>
<path stroke="#0e4284" d="&#10;  M 134.13 12.95&#10;  C 133.39 15.02 132.70 17.06 132.34 19.31&#10;  Q 129.37 38.19 121.92 54.04" data-c-stroke="0e4284"/>
<path stroke="#0e2f7c" d="&#10;  M 121.92 54.04&#10;  Q 116.21 57.60 111.99 59.99&#10;  Q 108.77 61.81 93.03 73.20&#10;  C 90.73 74.86 87.87 77.65 84.91 79.52&#10;  A 2.24 2.23 42.3 0 1 82.73 79.62&#10;  Q 80.94 78.73 78.21 77.93&#10;  Q 75.28 77.07 73.51 76.36&#10;  Q 52.69 68.04 31.32 62.46&#10;  Q 30.29 62.19 29.69 62.48&#10;  C 28.39 63.10 27.12 65.36 26.72 66.21" data-c-stroke="0e2f7c"/>
<path stroke="#0d4989" d="&#10;  M 26.72 66.21&#10;  Q 24.78 69.47 22.68 72.63&#10;  Q 18.47 78.95 15.86 86.07&#10;  Q 15.00 88.41 6.61 101.86&#10;  Q 5.45 103.72 6.71 105.30&#10;  Q 8.87 108.02 11.64 110.35&#10;  Q 19.71 117.11 27.94 123.71" data-c-stroke="0d4989"/>
<path stroke="#102876" d="&#10;  M 27.94 123.71&#10;  Q 32.17 126.72 36.05 130.16&#10;  Q 38.38 132.22 40.11 133.24&#10;  Q 42.27 134.52 44.19 136.16&#10;  C 45.70 137.44 48.07 138.45 49.88 139.38&#10;  A 1.95 1.94 25.9 0 1 50.76 141.91&#10;  Q 50.53 142.42 49.65 142.78" data-c-stroke="102876"/>
<path stroke="#0d473e" d="&#10;  M 49.65 142.78&#10;  Q 48.89 142.54 47.50 142.83" data-c-stroke="0d473e"/>
<path stroke="#0234af" d="&#10;  M 119.58 64.71&#10;  Q 115.54 67.78 111.41 70.36&#10;  Q 105.75 73.90 103.08 75.78&#10;  Q 97.77 79.53 92.37 83.12&#10;  C 92.01 83.36 91.62 83.92 91.49 84.23&#10;  Q 91.04 85.32 92.11 84.69&#10;  Q 95.36 82.77 99.49 79.83&#10;  Q 102.27 77.86 107.11 75.38&#10;  Q 115.64 71.01 121.67 68.62&#10;  Q 127.41 66.35 135.05 64.73&#10;  Q 146.16 62.36 148.75 62.01&#10;  Q 158.65 60.65 174.79 61.50&#10;  Q 177.87 61.66 186.43 63.12&#10;  Q 193.32 64.30 197.67 66.16&#10;  Q 210.11 71.49 220.22 79.28&#10;  Q 221.17 80.01 228.25 85.61&#10;  Q 229.14 86.31 231.68 88.69&#10;  Q 233.63 90.51 235.16 91.53&#10;  Q 236.78 92.62 237.68 94.27&#10;  Q 238.64 96.03 239.78 97.38&#10;  Q 241.64 99.60 243.24 101.98" data-c-stroke="0234af"/>
<path stroke="#0c2481" d="&#10;  M 243.24 101.98&#10;  L 245.04 104.70" data-c-stroke="0c2481"/>
<path stroke="#2641d3" d="&#10;  M 245.04 104.70&#10;  Q 241.23 103.23 237.74 101.20&#10;  Q 234.84 99.52 232.86 99.06&#10;  Q 230.17 98.44 227.45 98.39&#10;  A 1.01 1.00 -73.9 0 0 226.57 98.88&#10;  L 220.49 109.04" data-c-stroke="2641d3"/>
<path stroke="#254176" d="&#10;  M 220.49 109.04&#10;  Q 213.75 100.90 205.81 95.49" data-c-stroke="254176"/>
<path stroke="#072670" d="&#10;  M 205.81 95.49&#10;  Q 198.63 90.24 195.67 88.81&#10;  Q 179.55 81.04 162.00 79.76&#10;  Q 154.68 79.22 144.13 81.09&#10;  Q 140.25 81.78 134.35 83.83&#10;  Q 126.53 86.54 124.81 87.30&#10;  Q 109.58 93.96 98.44 106.21&#10;  Q 94.21 110.88 90.54 115.29" data-c-stroke="072670"/>
<path stroke="#1e38e5" d="&#10;  M 90.54 115.29&#10;  Q 89.40 113.63 86.13 115.63&#10;  Q 84.40 116.69 80.07 123.00" data-c-stroke="1e38e5"/>
<path stroke="#015cea" d="&#10;  M 80.07 123.00&#10;  L 77.54 124.57&#10;  A 1.19 1.19 0.0 0 1 75.82 124.01&#10;  L 74.27 120.24&#10;  Q 74.07 119.74 73.55 119.57&#10;  L 66.29 117.26" data-c-stroke="015cea"/>
<path stroke="#052f7f" d="&#10;  M 66.29 117.26&#10;  Q 67.72 113.15 70.75 108.03&#10;  Q 74.55 101.63 78.18 97.34" data-c-stroke="052f7f"/>
<path stroke="#043bd7" d="&#10;  M 78.18 97.34&#10;  L 80.74 93.94&#10;  Q 81.07 93.50 80.57 93.27&#10;  Q 77.58 91.94 74.30 90.90&#10;  C 70.22 89.60 66.75 87.14 62.60 85.65&#10;  Q 54.62 82.79 48.80 80.37&#10;  Q 46.91 79.59 41.54 79.30&#10;  C 38.78 79.15 35.79 78.13 32.83 77.78" data-c-stroke="043bd7"/>
<path stroke="#015cea" d="&#10;  M 32.83 77.78&#10;  Q 30.86 71.40 26.72 66.21" data-c-stroke="015cea"/>
<path stroke="#d35fbf" d="&#10;  M 207.38 260.35&#10;  Q 204.37 261.42 200.50 263.75&#10;  Q 198.22 265.13 195.27 265.60" data-c-stroke="d35fbf"/>
<path stroke="#c72493" d="&#10;  M 191.02 272.48&#10;  Q 187.19 273.31 185.73 273.40&#10;  Q 171.38 274.36 157.00 274.11&#10;  Q 150.87 274.01 142.49 273.24&#10;  Q 135.22 272.57 128.01 271.94" data-c-stroke="c72493"/>
<path stroke="#ca21ae" d="&#10;  M 128.01 271.94&#10;  Q 126.78 271.17 125.60 271.06" data-c-stroke="ca21ae"/>
<path stroke="#0247b7" d="&#10;  M 197.94 62.24&#10;  Q 184.22 58.30 169.90 55.95&#10;  Q 167.52 55.56 164.75 55.63&#10;  Q 160.50 55.73 156.26 55.82&#10;  Q 149.24 55.98 140.27 57.74&#10;  Q 135.63 58.65 129.79 60.80&#10;  Q 124.51 62.75 119.58 64.71" data-c-stroke="0247b7"/>
<path stroke="#0255e5" d="&#10;  M 119.58 64.71&#10;  Q 117.84 65.58 117.11 65.47&#10;  Q 116.54 65.39 116.71 64.84&#10;  Q 118.33 59.50 121.92 54.04" data-c-stroke="0255e5"/>
<path stroke="#072879" d="&#10;  M 78.18 97.34&#10;  L 78.11 96.93&#10;  A 0.56 0.52 -40.9 0 0 77.28 96.90&#10;  C 75.22 99.05 72.70 101.57 70.82 104.56&#10;  Q 65.99 112.21 64.92 114.39&#10;  Q 64.32 115.60 61.81 122.33&#10;  Q 60.60 125.55 58.47 130.13&#10;  Q 56.61 134.14 55.58 138.62&#10;  Q 53.03 149.80 53.58 161.50&#10;  Q 53.77 165.66 54.03 169.62" data-c-stroke="072879"/>
<path stroke="#581dcf" d="&#10;  M 54.03 169.62&#10;  Q 51.48 171.71 50.07 175.12" data-c-stroke="581dcf"/>
<path stroke="#072c70" d="&#10;  M 50.07 175.12&#10;  Q 49.02 174.00 47.90 173.58" data-c-stroke="072c70"/>
<path stroke="#035399" d="&#10;  M 47.90 173.58&#10;  Q 47.72 164.78 47.43 156.25&#10;  Q 47.23 150.52 49.65 142.78" data-c-stroke="035399"/>
<path stroke="#df25b9" d="&#10;  M 270.51 188.42&#10;  Q 267.16 194.26 263.01 198.33&#10;  Q 260.67 200.62 261.31 197.41&#10;  Q 261.36 197.14 261.37 195.75" data-c-stroke="df25b9"/>
<path stroke="#0354e4" d="&#10;  M 32.83 77.78&#10;  Q 27.34 92.08 21.81 106.34&#10;  Q 21.24 107.80 21.43 109.41&#10;  Q 21.48 109.92 21.92 110.20&#10;  C 23.09 110.94 24.11 111.68 24.96 112.84&#10;  Q 26.78 115.31 28.55 117.79&#10;  Q 29.57 119.21 29.38 120.64&#10;  Q 29.17 122.31 27.94 123.71" data-c-stroke="0354e4"/>
<path stroke="#037dea" d="&#10;  M 259.43 70.25&#10;  C 265.25 71.68 270.51 69.97 277.45 68.33&#10;  Q 278.08 68.17 278.67 68.47&#10;  Q 285.17 71.79 290.55 80.13&#10;  Q 298.14 91.90 297.20 105.26&#10;  Q 296.93 109.07 294.00 120.91" data-c-stroke="037dea"/>
<path stroke="#0448d7" d="&#10;  M 269.22 139.33&#10;  Q 264.51 136.85 261.38 131.75" data-c-stroke="0448d7"/>
<path stroke="#0c3281" d="&#10;  M 261.38 131.75&#10;  Q 258.12 122.01 253.26 112.93&#10;  Q 252.21 110.96 249.66 107.03&#10;  Q 247.78 104.13 246.08 101.11" data-c-stroke="0c3281"/>
<path stroke="#0242af" d="&#10;  M 246.08 101.11&#10;  Q 243.15 98.02 240.41 94.80&#10;  Q 236.71 90.45 234.58 88.69&#10;  Q 230.97 85.71 227.75 82.33&#10;  Q 224.92 79.36 220.77 76.19&#10;  Q 213.14 70.37 204.71 65.15" data-c-stroke="0242af"/>
<path stroke="#f092c4" d="&#10;  M 192.51 272.60&#10;  Q 190.80 274.53 190.66 275.94&#10;  Q 190.14 281.42 187.98 286.46&#10;  Q 187.79 286.91 187.41 287.21&#10;  Q 187.01 287.54 186.88 288.08&#10;  C 186.00 291.67 184.48 295.49 183.92 299.02&#10;  Q 182.36 308.73 179.64 318.16&#10;  Q 179.49 318.66 179.86 319.02&#10;  Q 180.37 319.52 181.50 319.70" data-c-stroke="f092c4"/>
<path stroke="#ce1f6a" d="&#10;  M 181.50 319.70&#10;  L 137.21 320.13&#10;  Q 137.08 320.13 137.01 320.02&#10;  Q 136.94 319.90 136.87 319.80" data-c-stroke="ce1f6a"/>
<path stroke="#9816a5" d="&#10;  M 268.50 185.77&#10;  Q 267.66 185.52 267.59 186.00&#10;  Q 267.17 189.04 265.00 190.81" data-c-stroke="9816a5"/>
<path stroke="#620386" d="&#10;  M 265.00 190.81&#10;  Q 262.95 191.35 260.81 191.08&#10;  Q 260.21 191.01 260.36 190.42&#10;  C 260.64 189.32 261.34 188.60 261.55 187.32&#10;  Q 262.57 181.34 262.41 175.46" data-c-stroke="620386"/>
<path stroke="#e864ca" d="&#10;  M 273.48 190.91&#10;  Q 274.77 195.28 277.81 198.21&#10;  Q 281.79 202.05 284.55 205.08&#10;  Q 287.07 207.85 289.47 209.55&#10;  C 292.09 211.42 295.69 213.09 297.70 217.04&#10;  Q 298.36 218.34 302.61 220.68&#10;  Q 305.68 222.36 306.20 223.22&#10;  Q 306.52 223.74 306.48 224.17&#10;  Q 306.27 226.74 304.10 228.65&#10;  Q 299.61 232.59 297.60 237.89&#10;  Q 296.60 240.53 295.67 242.90&#10;  Q 295.01 244.57 293.82 245.81&#10;  Q 291.64 248.08 291.51 248.25&#10;  Q 288.19 252.51 287.06 254.06&#10;  Q 284.70 257.30 283.29 260.55&#10;  A 1.69 1.69 0.0 0 0 284.42 262.86&#10;  Q 285.19 263.05 285.04 263.59" data-c-stroke="e864ca"/>
<path stroke="#e864ca" d="&#10;  M 210.65 260.11&#10;  Q 210.13 259.43 207.38 260.35" data-c-stroke="e864ca"/>
<path stroke="#be1b9d" d="&#10;  M 207.38 260.35&#10;  C 211.92 256.34 217.32 253.62 222.43 250.45&#10;  Q 224.11 249.41 228.42 243.72" data-c-stroke="be1b9d"/>
<path stroke="#2dc7e6" d="&#10;  M 291.32 63.62&#10;  Q 291.00 63.66 290.79 63.76&#10;  A 0.64 0.62 -22.8 0 0 290.47 64.52&#10;  Q 291.64 68.16 293.31 71.59&#10;  Q 293.36 71.70 295.90 77.47&#10;  Q 297.14 80.28 299.45 84.06&#10;  Q 302.39 88.85 305.26 89.49" data-c-stroke="2dc7e6"/>
<path stroke="#d97f99" d="&#10;  M 182.46 319.55&#10;  Q 181.87 319.54 181.50 319.70" data-c-stroke="d97f99"/>
<path stroke="#037dea" d="&#10;  M 194.92 52.46&#10;  Q 194.08 54.38 196.39 56.83&#10;  Q 197.70 58.22 200.04 59.55&#10;  Q 203.74 61.64 206.43 64.17&#10;  Q 206.49 64.23 206.49 64.44&#10;  Q 206.49 64.79 206.15 64.86&#10;  L 204.71 65.15" data-c-stroke="037dea"/>
<path stroke="#0361bc" d="&#10;  M 204.71 65.15&#10;  L 197.94 62.24" data-c-stroke="0361bc"/>
<path stroke="#0382f2" d="&#10;  M 197.94 62.24&#10;  Q 193.60 59.60 188.97 58.90&#10;  A 2.63 2.61 -5.9 0 1 186.91 57.24&#10;  Q 183.09 47.11 181.66 36.45&#10;  Q 181.20 32.96 180.26 29.67&#10;  Q 178.72 24.23 178.32 23.03&#10;  Q 177.85 21.61 175.97 18.23&#10;  C 173.56 13.91 169.23 14.23 164.30 14.51&#10;  Q 160.83 14.70 157.26 14.66&#10;  Q 148.14 14.54 141.94 15.19&#10;  Q 141.03 15.28 137.64 14.91&#10;  Q 135.46 14.68 134.13 12.95" data-c-stroke="0382f2"/>
<path stroke="#59166e" d="&#10;  M 50.07 175.12&#10;  Q 50.90 178.46 51.09 182.25&#10;  C 51.36 187.72 45.34 192.18 40.91 194.54&#10;  Q 38.87 195.63 35.88 197.83&#10;  Q 32.61 200.23 31.96 200.63&#10;  C 29.24 202.28 26.53 205.27 23.71 206.73&#10;  Q 20.91 208.18 19.12 209.68&#10;  Q 17.37 211.16 13.74 213.23&#10;  Q 11.99 214.22 9.66 217.89" data-c-stroke="59166e"/>
<path stroke="#5b2c79" d="&#10;  M 9.66 217.89&#10;  Q 8.01 219.20 7.36 220.48" data-c-stroke="5b2c79"/>
<path stroke="#79286c" d="&#10;  M 7.36 220.48&#10;  Q 5.53 222.10 5.78 223.02&#10;  C 7.66 230.06 13.58 236.07 17.48 242.62&#10;  C 23.68 253.04 27.29 258.02 29.91 264.19&#10;  A 1.01 1.00 66.6 0 0 31.24 264.72&#10;  Q 36.49 262.39 41.83 260.15&#10;  Q 44.77 258.91 52.61 256.01&#10;  Q 61.85 252.59 70.73 248.30&#10;  C 73.77 246.83 76.83 245.91 80.05 244.79&#10;  C 80.87 244.51 82.05 244.52 82.93 244.96&#10;  Q 85.27 246.12 87.47 247.21" data-c-stroke="79286c"/>
<path stroke="#59166e" d="&#10;  M 87.47 247.21&#10;  L 91.50 250.40" data-c-stroke="59166e"/>
<path stroke="#43144d" d="&#10;  M 91.50 250.40&#10;  C 94.72 252.69 97.53 255.79 100.68 257.62&#10;  Q 103.29 259.13 106.06 260.32&#10;  Q 110.85 262.37 111.58 262.71&#10;  Q 117.53 265.50 117.90 265.64&#10;  Q 118.28 265.79 118.82 265.89&#10;  Q 119.20 265.95 119.51 266.18&#10;  L 123.71 269.29&#10;  Q 124.13 269.61 124.20 270.12&#10;  L 124.44 271.96" data-c-stroke="43144d"/>
<path stroke="#79286c" d="&#10;  M 124.44 271.96&#10;  Q 125.91 276.88 127.19 281.85&#10;  Q 128.25 285.97 130.05 291.69&#10;  Q 131.54 296.39 132.68 301.20&#10;  Q 132.92 302.24 134.69 307.60&#10;  Q 135.92 311.33 136.05 315.77" data-c-stroke="79286c"/>
<path stroke="#762b52" d="&#10;  M 136.05 315.77&#10;  Q 136.75 317.44 136.87 319.80" data-c-stroke="762b52"/>
<path stroke="#5f1827" d="&#10;  M 136.87 319.80&#10;  Q 136.73 320.32 136.39 320.73" data-c-stroke="5f1827"/>
<path stroke="#044b38" d="&#10;  M 47.90 173.58&#10;  Q 46.56 167.49 46.11 161.05&#10;  Q 45.91 158.13 46.34 152.46&#10;  Q 46.65 148.30 46.63 143.85" data-c-stroke="044b38"/>
<path stroke="#261aa9" d="&#10;  M 268.32 185.41&#10;  Q 266.72 185.61 266.91 183.48&#10;  Q 267.70 174.66 267.50 170.79&#10;  Q 267.20 165.28 267.03 159.76&#10;  Q 266.94 156.85 266.20 153.10&#10;  Q 265.55 149.83 265.09 146.50" data-c-stroke="261aa9"/>
<path stroke="#2a2509" d="&#10;  M 205.81 95.49&#10;  L 211.87 103.35&#10;  Q 212.17 103.75 212.16 104.24&#10;  Q 212.13 105.09 211.72 105.80" data-c-stroke="2a2509"/>
<path stroke="#857a6b" d="&#10;  M 211.72 105.80&#10;  Q 211.34 105.38 211.01 105.42" data-c-stroke="857a6b"/>
<path stroke="#4c8480" d="&#10;  M 211.01 105.42&#10;  Q 208.54 102.76 206.08 100.17&#10;  Q 203.44 97.39 200.56 96.16" data-c-stroke="4c8480"/>
<path stroke="#317d6c" d="&#10;  M 200.56 96.16&#10;  C 198.50 95.18 196.56 94.35 194.70 93.05&#10;  Q 190.88 90.36 188.71 89.63&#10;  Q 175.48 85.17 162.04 83.77&#10;  C 159.52 83.51 156.64 84.31 154.03 84.37&#10;  Q 139.03 84.70 126.37 91.15&#10;  Q 119.69 94.56 116.72 96.04&#10;  C 115.01 96.89 113.13 98.10 111.98 99.23&#10;  Q 106.10 104.97 100.10 110.60&#10;  Q 97.78 112.78 95.95 116.49" data-c-stroke="317d6c"/>
<path stroke="#4c8480" d="&#10;  M 95.95 116.49&#10;  Q 92.77 122.03 89.11 127.12&#10;  Q 87.23 129.74 85.51 135.11&#10;  Q 84.90 137.03 83.12 143.45&#10;  Q 80.15 154.16 80.01 160.23&#10;  Q 79.70 174.32 83.84 187.64&#10;  Q 86.02 194.67 89.79 200.76&#10;  Q 93.42 206.63 99.19 215.62&#10;  C 100.44 217.56 102.35 218.95 104.03 220.82&#10;  Q 105.07 221.98 107.34 223.73&#10;  Q 112.70 227.88 118.52 232.29&#10;  Q 118.70 232.42 124.19 235.83&#10;  Q 126.96 237.55 130.29 238.36&#10;  Q 131.89 238.74 138.54 240.58&#10;  C 149.84 243.69 162.45 243.94 172.98 242.20&#10;  Q 175.39 241.80 182.78 240.06&#10;  Q 188.45 238.72 192.23 236.88&#10;  Q 201.53 232.35 209.76 226.02&#10;  Q 220.36 217.87 226.74 206.38&#10;  C 228.31 203.54 229.41 201.94 231.37 199.26&#10;  Q 233.11 196.87 234.19 193.65&#10;  Q 243.07 167.17 234.16 140.87&#10;  Q 232.84 136.99 231.01 133.27&#10;  Q 228.21 127.59 227.27 125.81&#10;  Q 226.30 123.95 224.97 125.58&#10;  C 221.47 129.90 218.27 135.30 214.50 139.73&#10;  Q 210.85 144.03 206.69 149.95&#10;  Q 202.46 155.96 195.21 163.47&#10;  Q 193.97 164.75 192.17 168.34&#10;  Q 190.81 171.04 189.15 173.15&#10;  Q 183.64 180.15 180.50 183.88&#10;  C 178.29 186.51 176.78 190.09 174.76 192.51&#10;  Q 168.41 200.08 165.75 203.41&#10;  C 164.39 205.11 160.94 208.35 158.69 207.08&#10;  Q 148.94 201.59 140.11 194.08&#10;  Q 137.28 191.66 135.91 189.86&#10;  Q 134.34 187.79 131.74 185.33&#10;  Q 129.91 183.61 126.25 178.36&#10;  Q 121.92 172.15 117.24 167.52&#10;  Q 115.31 165.62 113.50 162.73&#10;  C 111.45 159.48 108.15 157.12 105.53 154.13&#10;  Q 104.77 153.25 103.39 152.53&#10;  Q 99.94 150.70 99.73 148.02" data-c-stroke="4c8480"/>
<path stroke="#837d7b" d="&#10;  M 99.73 148.02&#10;  L 123.03 151.25" data-c-stroke="837d7b"/>
<path stroke="#7b4e50" d="&#10;  M 123.03 151.25&#10;  Q 135.51 154.21 148.52 154.37" data-c-stroke="7b4e50"/>
<path stroke="#837d7b" d="&#10;  M 148.52 154.37&#10;  L 159.27 154.59" data-c-stroke="837d7b"/>
<path stroke="#7b4e50" d="&#10;  M 159.27 154.59&#10;  Q 163.77 155.35 166.39 154.15&#10;  Q 170.95 152.04 175.18 147.03" data-c-stroke="7b4e50"/>
<path stroke="#857a6b" d="&#10;  M 175.18 147.03&#10;  Q 181.80 140.22 188.66 133.90&#10;  Q 190.20 132.49 192.06 130.32&#10;  Q 193.68 128.43 195.46 126.70&#10;  Q 200.14 122.13 200.74 121.49&#10;  Q 205.23 116.69 209.79 111.73" data-c-stroke="857a6b"/>
<path stroke="#0a6f76" d="&#10;  M 209.79 111.73&#10;  Q 209.95 114.62 205.72 118.21" data-c-stroke="0a6f76"/>
<path stroke="#075863" d="&#10;  M 205.72 118.21&#10;  Q 195.35 129.81 184.62 140.91&#10;  C 182.72 142.89 180.20 145.01 178.11 147.21" data-c-stroke="075863"/>
<path stroke="#064052" d="&#10;  M 178.11 147.21&#10;  Q 174.21 150.76 170.78 154.76&#10;  C 168.52 157.39 166.49 158.19 163.31 158.35&#10;  Q 161.70 158.42 154.96 158.40&#10;  Q 151.13 158.39 146.61 158.00&#10;  Q 126.20 156.21 125.43 156.12&#10;  Q 117.46 155.16 110.90 153.14&#10;  Q 109.12 152.60 110.46 153.89&#10;  Q 118.86 162.01 124.85 169.48&#10;  C 127.27 172.51 130.75 175.31 132.94 177.06&#10;  Q 135.66 179.24 138.73 183.37&#10;  Q 141.16 186.65 144.04 189.48&#10;  Q 146.84 192.23 149.91 195.08" data-c-stroke="064052"/>
<path stroke="#075863" d="&#10;  M 149.91 195.08&#10;  Q 153.56 198.32 158.22 200.30&#10;  A 2.88 2.86 -55.1 0 0 161.31 199.74&#10;  Q 166.39 194.93 172.47 187.88&#10;  Q 173.88 186.25 176.33 182.12&#10;  Q 178.14 179.07 180.49 176.48&#10;  C 184.05 172.57 186.38 170.39 188.60 166.98&#10;  Q 191.99 161.77 197.22 155.54&#10;  Q 201.66 150.25 206.15 144.35&#10;  Q 212.83 135.57 219.65 126.77" data-c-stroke="075863"/>
<path stroke="#0a6f76" d="&#10;  M 219.65 126.77&#10;  L 223.16 121.01" data-c-stroke="0a6f76"/>
<path stroke="#2a2509" d="&#10;  M 223.16 121.01&#10;  L 226.46 117.24" data-c-stroke="2a2509"/>
<path stroke="#2b2566" d="&#10;  M 226.46 117.24&#10;  L 235.03 106.78&#10;  A 0.79 0.79 0.0 0 1 236.42 107.12&#10;  Q 236.64 108.17 235.97 109.28&#10;  Q 232.52 115.04 228.77 119.42&#10;  A 0.61 0.61 0.0 0 0 228.72 120.14&#10;  Q 233.82 127.93 238.23 137.55&#10;  Q 240.31 142.09 242.00 153.95" data-c-stroke="2b2566"/>
<path stroke="#4a1c64" d="&#10;  M 242.00 153.95&#10;  Q 243.05 165.56 242.69 173.13&#10;  Q 241.81 191.40 231.48 207.77" data-c-stroke="4a1c64"/>
<path stroke="#660f60" d="&#10;  M 231.48 207.77&#10;  L 225.95 215.29" data-c-stroke="660f60"/>
<path stroke="#5b0868" d="&#10;  M 225.95 215.29&#10;  Q 221.01 222.34 216.11 226.11&#10;  Q 206.75 233.31 206.10 233.92&#10;  Q 203.70 236.15 200.40 237.27&#10;  Q 197.43 238.29 191.78 241.02&#10;  Q 188.19 242.75 175.50 246.22&#10;  Q 164.55 249.23 150.44 247.54&#10;  Q 134.65 245.65 118.97 237.69&#10;  C 116.65 236.51 114.32 234.68 112.28 232.71&#10;  Q 107.98 228.59 103.26 225.97&#10;  C 101.16 224.81 98.78 222.94 97.72 221.58&#10;  Q 96.28 219.73 94.46 216.51&#10;  C 92.44 212.95 89.75 209.99 87.26 206.76" data-c-stroke="5b0868"/>
<path stroke="#421479" d="&#10;  M 87.26 206.76&#10;  Q 83.55 198.16 79.26 189.98&#10;  Q 77.11 185.89 75.46 177.04" data-c-stroke="421479"/>
<path stroke="#091e6a" d="&#10;  M 75.46 177.04&#10;  Q 74.04 167.90 74.59 160.75&#10;  Q 74.85 157.37 76.19 147.14&#10;  Q 76.56 144.32 77.64 140.82&#10;  Q 78.57 137.79 79.32 134.55" data-c-stroke="091e6a"/>
<path stroke="#231b78" d="&#10;  M 79.32 134.55&#10;  Q 80.20 131.49 80.80 130.56&#10;  Q 84.53 124.70 85.55 122.99&#10;  Q 87.74 119.30 90.54 115.29" data-c-stroke="231b78"/>
<path stroke="#2030df" d="&#10;  M 79.32 134.55&#10;  Q 78.68 135.45 78.11 136.21&#10;  Q 77.67 136.80 76.69 137.66&#10;  Q 74.96 139.17 74.32 141.31&#10;  Q 70.51 153.97 71.62 167.81" data-c-stroke="2030df"/>
<path stroke="#5926ee" d="&#10;  M 71.62 167.81&#10;  L 57.55 167.32" data-c-stroke="5926ee"/>
<path stroke="#1d51f2" d="&#10;  M 65.16 119.97&#10;  C 65.07 122.06 64.35 124.12 64.75 126.04&#10;  C 65.33 128.80 66.57 130.86 69.19 132.28&#10;  Q 70.66 133.08 72.38 134.30&#10;  A 0.84 0.84 0.0 0 0 73.66 133.90&#10;  Q 74.29 132.17 75.16 131.14&#10;  C 76.68 129.33 79.84 128.05 80.82 126.32&#10;  Q 82.60 123.21 80.07 123.00" data-c-stroke="1d51f2"/>
<path stroke="#302377" d="&#10;  M 245.04 104.70&#10;  Q 249.95 111.14 252.69 117.05&#10;  Q 259.49 131.72 262.56 149.25" data-c-stroke="302377"/>
<path stroke="#6937c6" d="&#10;  M 262.56 149.25&#10;  L 262.16 152.63&#10;  Q 262.10 153.09 261.74 152.82&#10;  L 256.79 149.16&#10;  A 1.55 1.54 41.7 0 0 254.81 149.27&#10;  C 253.29 150.69 252.06 151.42 249.98 151.89&#10;  Q 245.94 152.81 242.00 153.95" data-c-stroke="6937c6"/>
<path stroke="#49406b" d="&#10;  M 220.49 109.04&#10;  Q 222.90 113.62 226.46 117.24" data-c-stroke="49406b"/>
<path stroke="#288a7c" d="&#10;  M 223.16 121.01&#10;  Q 221.72 119.14 220.89 117.00&#10;  Q 219.66 113.87 218.96 112.88&#10;  Q 216.36 109.24 212.72 106.94" data-c-stroke="288a7c"/>
<path stroke="#a39671" d="&#10;  M 212.72 106.94&#10;  L 211.72 105.80" data-c-stroke="a39671"/>
<path stroke="#04498c" d="&#10;  M 66.29 117.26&#10;  L 65.16 119.97" data-c-stroke="04498c"/>
<path stroke="#212587" d="&#10;  M 65.16 119.97&#10;  Q 63.98 123.37 63.25 126.87&#10;  Q 62.44 130.78 61.48 133.77&#10;  Q 56.26 150.00 57.55 167.32" data-c-stroke="212587"/>
<path stroke="#401d88" d="&#10;  M 57.55 167.32&#10;  Q 58.24 180.39 62.14 192.88&#10;  Q 63.95 198.66 65.79 204.43&#10;  Q 66.39 206.27 69.72 211.66" data-c-stroke="401d88"/>
<path stroke="#591277" d="&#10;  M 69.72 211.66&#10;  Q 73.49 217.86 74.86 219.39&#10;  Q 77.87 222.78 80.65 226.29" data-c-stroke="591277"/>
<path stroke="#482573" d="&#10;  M 80.65 226.29&#10;  Q 81.85 228.64 83.80 230.55" data-c-stroke="482573"/>
<path stroke="#431056" d="&#10;  M 83.80 230.55&#10;  Q 83.99 231.00 83.81 231.39&#10;  Q 83.63 231.79 83.05 231.78" data-c-stroke="431056"/>
<path stroke="#591277" d="&#10;  M 83.05 231.78&#10;  Q 78.12 225.64 72.42 220.21&#10;  Q 70.90 218.75 70.31 217.70&#10;  Q 69.41 216.10 68.52 214.99&#10;  Q 67.34 213.51 65.94 210.63&#10;  Q 60.29 199.06 59.47 196.76&#10;  Q 55.66 186.04 54.03 169.62" data-c-stroke="591277"/>
<path stroke="#0c1653" d="&#10;  M 246.08 101.11&#10;  Q 244.26 101.05 243.24 101.98" data-c-stroke="0c1653"/>
<path stroke="#0e1d7b" d="&#10;  M 261.38 131.75&#10;  L 265.09 146.50" data-c-stroke="0e1d7b"/>
<path stroke="#2e0453" d="&#10;  M 265.09 146.50&#10;  L 265.46 152.09&#10;  Q 265.49 152.56 265.02 152.65&#10;  Q 263.76 152.90 263.16 152.09&#10;  Q 262.69 151.47 262.69 152.25&#10;  L 262.66 163.21" data-c-stroke="2e0453"/>
<path stroke="#4f1a75" d="&#10;  M 262.66 163.21&#10;  L 262.56 149.25" data-c-stroke="4f1a75"/>
<path stroke="#940d8e" d="&#10;  M 125.98 256.17&#10;  C 123.62 260.82 124.66 265.72 125.60 271.06" data-c-stroke="940d8e"/>
<path stroke="#b418aa" d="&#10;  M 125.60 271.06&#10;  L 125.01 271.11&#10;  Q 124.58 271.14 124.51 271.57&#10;  L 124.44 271.96" data-c-stroke="b418aa"/>
<path stroke="#aa0fb0" d="&#10;  M 199.95 249.92&#10;  C 195.49 251.77 190.79 252.98 185.90 252.34&#10;  Q 183.07 251.97 180.23 251.53&#10;  Q 178.07 251.20 172.88 252.32&#10;  Q 168.82 253.19 165.56 253.28&#10;  Q 148.14 253.80 142.36 254.65&#10;  Q 131.45 256.27 125.98 256.17" data-c-stroke="aa0fb0"/>
<path stroke="#9406ac" d="&#10;  M 125.98 256.17&#10;  Q 123.14 256.13 120.32 255.88&#10;  Q 117.30 255.61 114.68 255.62&#10;  Q 108.63 255.63 102.74 254.38&#10;  C 101.20 254.05 100.42 253.06 99.73 251.78&#10;  Q 97.72 248.03 95.61 243.46" data-c-stroke="9406ac"/>
<path stroke="#991bc9" d="&#10;  M 95.61 243.46&#10;  Q 99.02 244.57 102.22 245.38&#10;  Q 106.28 246.40 108.85 247.30&#10;  Q 118.70 250.72 128.91 252.87&#10;  Q 129.59 253.01 132.36 253.38&#10;  Q 132.92 253.46 132.58 253.01&#10;  Q 131.96 252.20 130.90 251.88&#10;  Q 120.84 248.86 115.84 247.12&#10;  Q 112.75 246.04 109.24 243.76&#10;  Q 106.52 241.98 102.78 240.38&#10;  Q 99.21 238.84 96.10 237.45&#10;  Q 87.26 233.49 80.65 226.29" data-c-stroke="991bc9"/>
<path stroke="#b415a8" d="&#10;  M 227.17 237.68&#10;  Q 224.47 239.09 221.83 240.42&#10;  Q 214.20 244.28 206.50 248.02&#10;  Q 204.94 248.77 199.95 249.92" data-c-stroke="b415a8"/>
<path stroke="#b50ec5" d="&#10;  M 199.95 249.92&#10;  L 200.81 249.64&#10;  A 0.02 0.01 30.1 0 0 200.80 249.61&#10;  Q 199.65 249.72 199.12 249.59&#10;  Q 197.66 249.23 199.15 248.62&#10;  C 202.61 247.20 204.94 245.86 206.44 242.22&#10;  C 208.04 238.33 210.12 234.53 213.08 231.58&#10;  Q 219.11 225.54 222.18 222.42&#10;  Q 224.15 220.41 225.95 215.29" data-c-stroke="b50ec5"/>
<path stroke="#b418aa" d="&#10;  M 265.00 190.81&#10;  L 261.37 195.75" data-c-stroke="b418aa"/>
<path stroke="#a91299" d="&#10;  M 261.37 195.75&#10;  L 259.07 198.55&#10;  Q 258.84 198.83 258.50 198.97&#10;  L 258.01 199.17&#10;  Q 257.55 199.36 257.39 199.83&#10;  Q 256.87 201.38 254.59 204.30&#10;  Q 252.63 206.80 251.10 209.58&#10;  Q 248.88 213.61 247.99 215.09&#10;  Q 244.08 221.53 235.15 236.87&#10;  C 234.09 238.68 233.04 239.10 231.33 240.26&#10;  C 230.09 241.09 229.29 242.49 228.42 243.72" data-c-stroke="a91299"/>
<path stroke="#940d8e" d="&#10;  M 228.42 243.72&#10;  Q 217.46 253.21 203.99 258.33&#10;  A 0.57 0.57 0.0 0 1 203.22 257.84&#10;  Q 203.19 257.45 203.63 257.10&#10;  Q 208.06 253.56 213.68 249.94&#10;  Q 218.46 246.86 227.17 237.68" data-c-stroke="940d8e"/>
<path stroke="#9f0ca4" d="&#10;  M 227.17 237.68&#10;  Q 235.63 228.17 241.00 216.82&#10;  C 242.27 214.14 244.07 212.25 246.11 210.30&#10;  Q 248.55 207.96 250.20 205.59&#10;  Q 255.64 197.77 258.07 188.49" data-c-stroke="9f0ca4"/>
<path stroke="#e82faf" d="&#10;  M 128.01 271.94&#10;  Q 129.57 272.91 129.94 275.11&#10;  Q 132.97 293.13 137.50 309.13&#10;  Q 138.07 311.12 137.62 312.56&#10;  Q 137.12 314.17 136.05 315.77" data-c-stroke="e82faf"/>
<path stroke="#9406ac" d="&#10;  M 83.05 231.78&#10;  Q 84.25 233.40 85.78 234.70&#10;  Q 88.09 236.66 88.60 237.56&#10;  Q 89.47 239.10 90.67 240.52&#10;  A 1.28 1.24 -65.9 0 1 90.97 241.34&#10;  Q 90.95 242.43 91.72 242.90&#10;  Q 92.17 243.18 92.12 243.70&#10;  L 91.50 250.40" data-c-stroke="9406ac"/>
<path stroke="#ca19cb" d="&#10;  M 87.47 247.21&#10;  Q 89.11 247.36 90.25 246.98&#10;  Q 90.74 246.82 90.82 246.31&#10;  Q 91.00 245.14 90.72 243.99&#10;  Q 90.59 243.47 90.09 243.30&#10;  Q 88.55 242.79 87.59 241.92&#10;  C 85.30 239.87 81.93 239.69 79.41 241.16&#10;  Q 76.12 243.07 72.61 244.59&#10;  Q 68.79 246.23 68.74 246.26&#10;  Q 64.49 248.21 56.05 252.36&#10;  Q 52.74 253.99 49.69 255.09&#10;  Q 44.58 256.95 43.18 257.44&#10;  Q 42.04 257.84 40.19 258.92&#10;  Q 39.76 259.17 39.33 258.90&#10;  L 38.51 258.39" data-c-stroke="ca19cb"/>
<path stroke="#d458dd" d="&#10;  M 38.51 258.39&#10;  Q 37.57 257.12 36.01 256.46" data-c-stroke="d458dd"/>
<path stroke="#ad1dd8" d="&#10;  M 36.01 256.46&#10;  Q 36.85 250.49 34.77 245.27&#10;  C 33.28 241.54 30.51 237.35 28.93 233.20&#10;  Q 27.12 228.45 23.91 221.92&#10;  C 22.64 219.31 21.48 216.21 20.26 213.47&#10;  A 0.61 0.61 0.0 0 0 19.44 213.16&#10;  L 9.66 217.89" data-c-stroke="ad1dd8"/>
<path stroke="#6718a3" d="&#10;  M 262.66 163.21&#10;  L 262.41 175.46" data-c-stroke="6718a3"/>
<path stroke="#8319a7" d="&#10;  M 262.41 175.46&#10;  Q 260.74 179.27 260.27 183.31&#10;  Q 260.11 184.74 258.07 188.49" data-c-stroke="8319a7"/>
<path stroke="#a421c1" d="&#10;  M 258.07 188.49&#10;  Q 250.31 193.04 246.19 200.79&#10;  Q 244.36 204.22 241.18 205.10&#10;  Q 240.08 205.41 236.33 205.80&#10;  Q 234.42 205.99 231.48 207.77" data-c-stroke="a421c1"/>
<path stroke="#d66ee7" d="&#10;  M 36.01 256.46&#10;  Q 34.20 256.09 32.25 256.83" data-c-stroke="d66ee7"/>
<path stroke="#cd2fd6" d="&#10;  M 32.25 256.83&#10;  Q 22.05 239.40 17.71 231.53&#10;  Q 13.54 223.98 7.36 220.48" data-c-stroke="cd2fd6"/>
<path stroke="#f46adb" d="&#10;  M 32.25 256.83&#10;  Q 35.23 259.58 37.76 259.30&#10;  Q 38.36 259.24 38.51 258.39" data-c-stroke="f46adb"/>
<path stroke="#04bed6" d="&#10;  M 219.65 126.77&#10;  C 213.51 125.86 209.76 122.90 205.72 118.21" data-c-stroke="04bed6"/>
<path stroke="#f2c2c8" d="&#10;  M 159.27 154.59&#10;  Q 163.57 153.48 166.17 150.89" data-c-stroke="f2c2c8"/>
<path stroke="#018fb2" d="&#10;  M 149.91 195.08&#10;  Q 154.18 191.27 156.62 187.11&#10;  Q 163.74 175.00 170.89 162.89&#10;  Q 172.25 160.59 173.34 159.18&#10;  Q 175.65 156.17 175.97 155.65&#10;  Q 177.24 153.59 178.62 151.59&#10;  Q 178.90 151.18 178.80 150.68&#10;  L 178.11 147.21" data-c-stroke="018fb2"/>
<path stroke="#f2c2c8" d="&#10;  M 148.52 154.37&#10;  Q 148.50 153.53 146.75 153.25&#10;  Q 134.99 151.32 123.03 151.25" data-c-stroke="f2c2c8"/>
<path stroke="#3f29e0" d="&#10;  M 75.46 177.04&#10;  Q 72.94 176.39 72.33 173.00&#10;  Q 71.86 170.37 71.62 167.81" data-c-stroke="3f29e0"/>
<path stroke="#71f8e9" d="&#10;  M 200.56 96.16&#10;  Q 196.12 95.71 191.87 94.30&#10;  Q 183.77 91.61 183.49 91.54&#10;  Q 175.99 89.54 173.00 89.04&#10;  Q 167.25 88.08 156.17 88.24&#10;  Q 144.69 88.41 132.57 93.83&#10;  Q 124.55 97.41 121.34 99.35&#10;  Q 110.39 105.94 95.95 116.49" data-c-stroke="71f8e9"/>
<path stroke="#c5f5e8" d="&#10;  M 211.01 105.42&#10;  C 210.50 107.53 208.85 107.83 207.67 108.82&#10;  Q 200.86 114.54 195.91 119.92&#10;  Q 188.80 127.65 182.81 132.85&#10;  C 181.58 133.92 181.15 135.43 179.92 136.60&#10;  Q 176.19 140.13 173.59 144.03" data-c-stroke="c5f5e8"/>
<path stroke="#bac8cd" d="&#10;  M 173.59 144.03&#10;  L 166.17 150.89" data-c-stroke="bac8cd"/>
<path stroke="#c3f8f8" d="&#10;  M 166.17 150.89&#10;  Q 152.04 148.90 138.10 149.53&#10;  Q 133.97 149.71 131.44 149.48&#10;  Q 127.30 149.10 124.76 149.15&#10;  Q 122.44 149.20 117.08 148.11&#10;  Q 112.67 147.21 109.31 147.13&#10;  C 106.76 147.06 104.31 146.55 102.18 146.10&#10;  Q 101.65 145.99 101.28 146.38&#10;  L 99.73 148.02" data-c-stroke="c3f8f8"/>
<path stroke="#9113de" d="&#10;  M 87.26 206.76&#10;  Q 78.17 207.91 69.72 211.66" data-c-stroke="9113de"/>
<path stroke="#83e0de" d="&#10;  M 212.72 106.94&#10;  Q 212.10 109.18 209.79 111.73" data-c-stroke="83e0de"/>
<path stroke="#f4bfb8" d="&#10;  M 175.18 147.03&#10;  L 173.59 144.03" data-c-stroke="f4bfb8"/>
<path stroke="#8319a7" d="&#10;  M 95.61 243.46&#10;  Q 91.23 238.26 86.19 232.57&#10;  Q 85.66 231.98 83.80 230.55" data-c-stroke="8319a7"/>
<path stroke="#c3f8f8" d="&#10;  M 111.61 132.70&#10;  Q 111.40 132.07 110.95 131.39&#10;  A 1.25 1.24 -36.1 0 0 109.13 131.11&#10;  Q 107.11 132.71 106.12 134.89&#10;  A 0.97 0.97 0.0 0 0 106.22 135.87&#10;  Q 107.07 137.02 108.52 137.82&#10;  Q 109.00 138.09 109.40 137.72&#10;  Q 111.18 136.12 113.85 136.69&#10;  A 0.81 0.79 -57.9 0 0 114.52 136.53&#10;  Q 115.06 136.10 114.83 135.55&#10;  Q 114.46 134.66 113.57 134.31&#10;  C 112.66 133.96 111.98 133.81 111.61 132.70" data-c-stroke="c3f8f8"/>
<path stroke="#2554db" d="&#10;  M 237.62 110.48&#10;  L 237.36 113.69&#10;  Q 237.32 114.16 237.57 114.55&#10;  Q 241.70 121.13 242.58 123.07&#10;  Q 243.56 125.23 245.76 127.23&#10;  Q 247.83 129.10 250.05 132.59&#10;  Q 251.26 134.50 251.10 132.25&#10;  Q 250.27 120.66 242.30 111.82&#10;  Q 240.44 109.75 237.54 109.98&#10;  Q 237.28 110.00 237.47 110.17&#10;  Q 237.58 110.27 237.62 110.42&#10;  Q 237.63 110.45 237.62 110.48" data-c-stroke="2554db"/>
<path stroke="#044b38" d="&#10;  M 111.2195 264.5952&#10;  A 0.69 0.69 0.0 0 0 110.8698 263.6842&#10;  L 99.2678 258.5186&#10;  A 0.69 0.69 0.0 0 0 98.3568 258.8683&#10;  L 98.3405 258.9048&#10;  A 0.69 0.69 0.0 0 0 98.6902 259.8158&#10;  L 110.2922 264.9814&#10;  A 0.69 0.69 0.0 0 0 111.2032 264.6317&#10;  L 111.2195 264.5952" data-c-stroke="044b38"/>
</g>
<path fill="#1a1c1b" d="&#10;  M 132.32 320.70&#10;  L 133.97 320.74&#10;  Q 134.45 320.75 134.88 320.97&#10;  Q 135.61 321.33 136.39 320.73&#10;  Q 136.39 321.97 137.76 322.12&#10;  Q 140.52 322.43 143.61 322.22&#10;  Q 147.83 321.94 149.42 321.96&#10;  Q 165.63 322.13 181.13 322.33&#10;  Q 181.64 322.34 181.98 321.95&#10;  Q 182.64 321.17 182.46 319.55&#10;  Q 183.52 316.71 184.17 313.72&#10;  Q 185.07 309.55 185.74 307.90&#10;  Q 187.31 304.08 188.02 299.73&#10;  Q 188.50 296.81 190.06 291.52&#10;  Q 192.46 283.41 193.77 273.19&#10;  A 0.59 0.55 16.5 0 0 193.43 272.61&#10;  Q 193.14 272.49 192.51 272.60&#10;  L 191.02 272.48&#10;  Q 189.66 269.59 191.12 267.61&#10;  Q 192.87 265.24 195.27 265.60&#10;  Q 195.24 266.66 196.45 266.69&#10;  Q 197.01 266.71 197.84 266.36&#10;  C 202.27 264.51 206.60 263.18 210.65 260.11&#10;  Q 215.75 256.98 221.15 253.68&#10;  C 224.84 251.43 226.78 249.22 229.66 246.52&#10;  Q 230.49 245.74 231.61 245.84&#10;  Q 233.52 245.99 235.48 245.91&#10;  Q 237.14 245.83 239.41 246.59&#10;  Q 245.76 248.72 250.80 250.86&#10;  Q 255.23 252.74 262.06 254.93&#10;  Q 268.76 257.08 273.23 259.53&#10;  Q 279.26 262.84 285.04 263.59&#10;  Q 288.08 265.27 290.80 261.54&#10;  Q 293.62 257.66 295.56 253.34&#10;  Q 298.73 246.31 299.42 244.61&#10;  Q 300.86 241.08 303.04 237.68&#10;  Q 306.54 232.20 307.48 231.23&#10;  Q 311.64 226.89 312.70 221.76&#10;  Q 312.92 220.70 312.71 219.87&#10;  Q 312.40 218.65 311.63 218.14&#10;  Q 302.48 212.15 295.01 207.99&#10;  Q 289.33 204.82 285.23 200.69&#10;  Q 282.01 197.44 279.58 195.53&#10;  Q 276.62 193.20 273.48 190.91&#10;  L 270.51 188.42&#10;  L 268.50 185.77&#10;  Q 268.33 185.70 268.32 185.41&#10;  Q 271.64 177.32 272.27 171.03&#10;  Q 273.30 160.79 271.45 147.93&#10;  C 271.05 145.15 269.82 142.27 269.22 139.33&#10;  Q 272.76 136.73 276.14 134.03&#10;  Q 279.72 131.19 283.23 128.96&#10;  C 286.06 127.16 289.34 125.38 291.77 123.06&#10;  Q 292.93 121.95 294.00 120.91&#10;  C 296.45 118.60 298.29 115.96 300.96 114.04&#10;  Q 304.49 111.50 307.90 108.84&#10;  Q 310.97 106.45 311.34 105.95&#10;  Q 312.86 103.92 311.75 101.00&#10;  Q 309.11 94.12 305.26 89.49&#10;  Q 302.64 84.53 299.54 80.25&#10;  Q 297.98 78.09 297.08 75.49&#10;  Q 294.92 69.20 291.32 63.62&#10;  L 289.47 61.73&#10;  Q 289.11 61.36 288.61 61.52&#10;  C 284.83 62.76 281.55 63.55 277.16 64.89&#10;  Q 274.20 65.79 269.46 66.92&#10;  Q 267.02 67.50 259.43 70.25&#10;  Q 256.92 71.48 254.21 72.29&#10;  Q 250.81 73.30 248.93 74.03&#10;  Q 245.39 75.41 241.73 76.45&#10;  Q 241.11 76.63 238.03 78.03&#10;  Q 235.90 79.01 233.81 78.39&#10;  Q 233.33 78.25 229.26 76.02&#10;  Q 227.57 75.09 225.71 72.47&#10;  Q 223.20 68.94 217.57 65.44&#10;  Q 203.89 56.93 194.92 52.46&#10;  Q 190.34 33.28 187.18 15.70&#10;  C 186.57 12.30 184.98 9.52 183.11 6.93&#10;  A 3.81 3.81 0.0 0 0 180.03 5.36&#10;  Q 167.96 5.38 165.92 5.38&#10;  Q 159.88 5.40 152.59 5.70&#10;  Q 145.93 5.98 139.25 5.78&#10;  C 135.94 5.68 134.73 10.41 134.13 12.95&#10;  C 133.39 15.02 132.70 17.06 132.34 19.31&#10;  Q 129.37 38.19 121.92 54.04&#10;  Q 116.21 57.60 111.99 59.99&#10;  Q 108.77 61.81 93.03 73.20&#10;  C 90.73 74.86 87.87 77.65 84.91 79.52&#10;  A 2.24 2.23 42.3 0 1 82.73 79.62&#10;  Q 80.94 78.73 78.21 77.93&#10;  Q 75.28 77.07 73.51 76.36&#10;  Q 52.69 68.04 31.32 62.46&#10;  Q 30.29 62.19 29.69 62.48&#10;  C 28.39 63.10 27.12 65.36 26.72 66.21&#10;  Q 24.78 69.47 22.68 72.63&#10;  Q 18.47 78.95 15.86 86.07&#10;  Q 15.00 88.41 6.61 101.86&#10;  Q 5.45 103.72 6.71 105.30&#10;  Q 8.87 108.02 11.64 110.35&#10;  Q 19.71 117.11 27.94 123.71&#10;  Q 32.17 126.72 36.05 130.16&#10;  Q 38.38 132.22 40.11 133.24&#10;  Q 42.27 134.52 44.19 136.16&#10;  C 45.70 137.44 48.07 138.45 49.88 139.38&#10;  A 1.95 1.94 25.9 0 1 50.76 141.91&#10;  Q 50.53 142.42 49.65 142.78&#10;  Q 48.89 142.54 47.50 142.83&#10;  Q 47.70 142.28 47.02 141.96&#10;  Q 43.40 140.27 40.84 138.16&#10;  Q 36.45 134.54 32.21 131.14&#10;  Q 29.17 128.71 25.56 126.75&#10;  Q 19.97 123.71 17.04 120.35&#10;  Q 14.80 117.78 11.29 114.89&#10;  Q 8.48 112.58 5.61 109.20&#10;  Q 2.98 106.11 1.72 102.35&#10;  Q 1.56 101.87 1.79 101.42&#10;  Q 7.60 89.92 14.57 79.31&#10;  Q 16.02 77.11 17.29 73.77&#10;  C 19.25 68.61 23.86 62.87 27.78 59.15&#10;  C 28.58 58.40 29.87 58.17 30.76 58.43&#10;  Q 49.61 64.05 60.28 67.26&#10;  Q 62.21 67.84 64.71 68.97&#10;  Q 66.54 69.80 69.16 70.65&#10;  Q 74.67 72.43 80.66 75.39&#10;  Q 81.12 75.61 81.59 75.45&#10;  Q 83.59 74.79 84.59 73.81&#10;  Q 87.81 70.64 90.21 68.94&#10;  Q 95.24 65.35 96.04 64.74&#10;  C 98.59 62.81 101.25 61.51 104.17 59.60&#10;  Q 111.38 54.87 118.41 51.35&#10;  A 3.57 3.57 0.0 0 0 120.13 49.50&#10;  Q 121.47 46.19 122.75 42.74&#10;  Q 123.51 40.68 124.49 35.69&#10;  Q 126.35 26.27 129.02 16.50&#10;  Q 130.18 12.24 132.60 6.64&#10;  Q 133.62 4.27 135.86 2.55&#10;  Q 137.28 1.46 140.61 1.55&#10;  Q 141.29 1.57 163.63 1.58&#10;  C 167.88 1.58 175.52 0.80 180.82 2.13&#10;  Q 186.42 3.54 188.55 9.71&#10;  Q 190.09 14.17 194.94 32.57&#10;  Q 195.92 36.30 196.58 40.27&#10;  Q 197.63 46.59 198.01 48.06&#10;  Q 198.36 49.43 199.15 50.60&#10;  Q 199.68 51.37 201.25 52.09&#10;  Q 207.11 54.75 213.03 59.03&#10;  Q 213.82 59.60 218.68 62.06&#10;  Q 222.19 63.85 224.10 65.58&#10;  Q 227.17 68.37 231.17 72.53&#10;  Q 234.42 75.92 238.31 74.12&#10;  Q 240.64 73.04 240.77 72.99&#10;  Q 242.69 72.28 248.69 70.08&#10;  Q 248.76 70.05 254.29 67.81&#10;  Q 257.71 66.42 261.32 65.65&#10;  Q 266.38 64.57 268.17 63.97&#10;  Q 270.18 63.29 272.77 62.76&#10;  Q 274.84 62.34 277.26 61.47&#10;  Q 283.17 59.34 285.80 58.61&#10;  Q 288.69 57.82 292.11 58.73&#10;  Q 292.59 58.86 292.89 59.27&#10;  C 293.87 60.66 295.64 62.62 296.59 64.62&#10;  Q 301.35 74.55 307.38 83.03&#10;  Q 309.97 86.67 311.36 90.17&#10;  Q 313.35 95.17 314.89 97.60&#10;  C 316.17 99.61 315.91 103.05 315.88 104.79&#10;  Q 315.86 106.49 315.00 107.51&#10;  Q 313.48 109.33 313.02 109.77&#10;  Q 311.20 111.52 307.97 113.75&#10;  Q 305.00 115.79 302.95 117.73&#10;  Q 296.12 124.18 295.22 124.97&#10;  Q 293.52 126.46 292.81 126.76&#10;  Q 290.30 127.82 288.92 128.48&#10;  Q 287.86 128.99 285.68 131.17&#10;  Q 281.67 135.22 276.44 138.41&#10;  Q 274.56 139.56 273.36 141.82&#10;  Q 273.11 142.27 273.21 142.78&#10;  Q 275.49 155.03 274.70 169.29&#10;  C 274.56 171.95 273.47 174.12 273.57 176.79&#10;  Q 273.64 178.62 272.76 181.49&#10;  C 272.27 183.09 272.63 184.06 274.07 185.11&#10;  Q 284.06 192.42 293.18 198.58&#10;  Q 295.04 199.84 296.86 202.14&#10;  Q 301.47 207.99 309.16 211.10&#10;  Q 310.06 211.47 313.65 214.90&#10;  Q 316.10 217.26 316.85 219.38&#10;  Q 317.93 222.42 317.19 225.42&#10;  Q 316.71 227.42 314.41 230.56&#10;  Q 309.31 237.52 306.20 244.19&#10;  Q 303.49 249.96 300.70 254.47&#10;  C 298.82 257.50 297.66 259.90 296.31 262.79&#10;  Q 295.98 263.51 294.11 265.34&#10;  Q 293.01 266.42 291.14 266.59&#10;  Q 285.06 267.13 283.01 266.50&#10;  Q 276.86 264.61 273.81 263.58&#10;  Q 269.85 262.23 264.83 260.05&#10;  Q 254.77 255.67 252.03 255.02&#10;  Q 245.03 253.35 238.36 250.94&#10;  C 235.08 249.76 232.75 250.43 229.96 252.78&#10;  Q 229.40 253.25 226.40 255.68&#10;  Q 225.52 256.39 223.16 258.89&#10;  Q 220.05 262.15 215.66 264.40&#10;  Q 209.54 267.52 199.54 272.08&#10;  A 1.33 1.32 85.2 0 0 198.82 272.94&#10;  Q 197.55 277.66 196.80 282.52&#10;  Q 195.72 289.55 194.47 294.27&#10;  Q 193.09 299.51 192.76 301.28&#10;  Q 192.06 305.12 191.15 308.31&#10;  Q 187.96 319.64 186.86 323.99&#10;  Q 186.74 324.48 186.26 324.64&#10;  Q 183.57 325.55 182.49 325.55&#10;  Q 158.31 325.55 134.17 325.65&#10;  A 1.30 1.29 -4.1 0 1 132.88 324.54&#10;  L 132.32 320.70&#10;  Z" data-c-fill="1a1c1b"/>
<path fill="#049cf7" d="&#10;  M 194.92 52.46&#10;  Q 194.08 54.38 196.39 56.83&#10;  Q 197.70 58.22 200.04 59.55&#10;  Q 203.74 61.64 206.43 64.17&#10;  Q 206.49 64.23 206.49 64.44&#10;  Q 206.49 64.79 206.15 64.86&#10;  L 204.71 65.15&#10;  L 197.94 62.24&#10;  Q 193.60 59.60 188.97 58.90&#10;  A 2.63 2.61 -5.9 0 1 186.91 57.24&#10;  Q 183.09 47.11 181.66 36.45&#10;  Q 181.20 32.96 180.26 29.67&#10;  Q 178.72 24.23 178.32 23.03&#10;  Q 177.85 21.61 175.97 18.23&#10;  C 173.56 13.91 169.23 14.23 164.30 14.51&#10;  Q 160.83 14.70 157.26 14.66&#10;  Q 148.14 14.54 141.94 15.19&#10;  Q 141.03 15.28 137.64 14.91&#10;  Q 135.46 14.68 134.13 12.95&#10;  C 134.73 10.41 135.94 5.68 139.25 5.78&#10;  Q 145.93 5.98 152.59 5.70&#10;  Q 159.88 5.40 165.92 5.38&#10;  Q 167.96 5.38 180.03 5.36&#10;  A 3.81 3.81 0.0 0 1 183.11 6.93&#10;  C 184.98 9.52 186.57 12.30 187.18 15.70&#10;  Q 190.34 33.28 194.92 52.46&#10;  Z" data-c-fill="049cf7"/>
<path fill="#016eed" d="&#10;  M 134.13 12.95&#10;  Q 135.46 14.68 137.64 14.91&#10;  Q 141.03 15.28 141.94 15.19&#10;  Q 148.14 14.54 157.26 14.66&#10;  Q 160.83 14.70 164.30 14.51&#10;  C 169.23 14.23 173.56 13.91 175.97 18.23&#10;  Q 177.85 21.61 178.32 23.03&#10;  Q 178.72 24.23 180.26 29.67&#10;  Q 181.20 32.96 181.66 36.45&#10;  Q 183.09 47.11 186.91 57.24&#10;  A 2.63 2.61 -5.9 0 0 188.97 58.90&#10;  Q 193.60 59.60 197.94 62.24&#10;  Q 184.22 58.30 169.90 55.95&#10;  Q 167.52 55.56 164.75 55.63&#10;  Q 160.50 55.73 156.26 55.82&#10;  Q 149.24 55.98 140.27 57.74&#10;  Q 135.63 58.65 129.79 60.80&#10;  Q 124.51 62.75 119.58 64.71&#10;  Q 117.84 65.58 117.11 65.47&#10;  Q 116.54 65.39 116.71 64.84&#10;  Q 118.33 59.50 121.92 54.04&#10;  Q 129.37 38.19 132.34 19.31&#10;  C 132.70 17.06 133.39 15.02 134.13 12.95&#10;  Z" data-c-fill="0167ed"/>
<path fill="#02b2dc" d="&#10;  M 259.43 70.25&#10;  C 265.25 71.68 270.51 69.97 277.45 68.33&#10;  Q 278.08 68.17 278.67 68.47&#10;  Q 285.17 71.79 290.55 80.13&#10;  Q 298.14 91.90 297.20 105.26&#10;  Q 296.93 109.07 294.00 120.91&#10;  Q 292.93 121.95 291.77 123.06&#10;  C 289.34 125.38 286.06 127.16 283.23 128.96&#10;  Q 279.72 131.19 276.14 134.03&#10;  Q 272.76 136.73 269.22 139.33&#10;  Q 264.51 136.85 261.38 131.75&#10;  Q 258.12 122.01 253.26 112.93&#10;  Q 252.21 110.96 249.66 107.03&#10;  Q 247.78 104.13 246.08 101.11&#10;  Q 243.15 98.02 240.41 94.80&#10;  Q 236.71 90.45 234.58 88.69&#10;  Q 230.97 85.71 227.75 82.33&#10;  Q 224.92 79.36 220.77 76.19&#10;  Q 213.14 70.37 204.71 65.15&#10;  L 206.15 64.86&#10;  Q 206.49 64.79 206.49 64.44&#10;  Q 206.49 64.23 206.43 64.17&#10;  Q 203.74 61.64 200.04 59.55&#10;  Q 197.70 58.22 196.39 56.83&#10;  Q 194.08 54.38 194.92 52.46&#10;  Q 203.89 56.93 217.57 65.44&#10;  Q 223.20 68.94 225.71 72.47&#10;  Q 227.57 75.09 229.26 76.02&#10;  Q 233.33 78.25 233.81 78.39&#10;  Q 235.90 79.01 238.03 78.03&#10;  Q 241.11 76.63 241.73 76.45&#10;  Q 245.39 75.41 248.93 74.03&#10;  Q 250.81 73.30 254.21 72.29&#10;  Q 256.92 71.48 259.43 70.25&#10;  Z" data-c-fill="025ddc"/>
<path fill="#5273ff" d="&#10;  M 121.92 54.04&#10;  Q 118.33 59.50 116.71 64.84&#10;  Q 116.54 65.39 117.11 65.47&#10;  Q 117.84 65.58 119.58 64.71&#10;  Q 115.54 67.78 111.41 70.36&#10;  Q 105.75 73.90 103.08 75.78&#10;  Q 97.77 79.53 92.37 83.12&#10;  C 92.01 83.36 91.62 83.92 91.49 84.23&#10;  Q 91.04 85.32 92.11 84.69&#10;  Q 95.36 82.77 99.49 79.83&#10;  Q 102.27 77.86 107.11 75.38&#10;  Q 115.64 71.01 121.67 68.62&#10;  Q 127.41 66.35 135.05 64.73&#10;  Q 146.16 62.36 148.75 62.01&#10;  Q 158.65 60.65 174.79 61.50&#10;  Q 177.87 61.66 186.43 63.12&#10;  Q 193.32 64.30 197.67 66.16&#10;  Q 210.11 71.49 220.22 79.28&#10;  Q 221.17 80.01 228.25 85.61&#10;  Q 229.14 86.31 231.68 88.69&#10;  Q 233.63 90.51 235.16 91.53&#10;  Q 236.78 92.62 237.68 94.27&#10;  Q 238.64 96.03 239.78 97.38&#10;  Q 241.64 99.60 243.24 101.98&#10;  L 245.04 104.70&#10;  Q 241.23 103.23 237.74 101.20&#10;  Q 234.84 99.52 232.86 99.06&#10;  Q 230.17 98.44 227.45 98.39&#10;  A 1.01 1.00 -73.9 0 0 226.57 98.88&#10;  L 220.49 109.04&#10;  Q 213.75 100.90 205.81 95.49&#10;  Q 198.63 90.24 195.67 88.81&#10;  Q 179.55 81.04 162.00 79.76&#10;  Q 154.68 79.22 144.13 81.09&#10;  Q 140.25 81.78 134.35 83.83&#10;  Q 126.53 86.54 124.81 87.30&#10;  Q 109.58 93.96 98.44 106.21&#10;  Q 94.21 110.88 90.54 115.29&#10;  Q 89.40 113.63 86.13 115.63&#10;  Q 84.40 116.69 80.07 123.00&#10;  L 77.54 124.57&#10;  A 1.19 1.19 0.0 0 1 75.82 124.01&#10;  L 74.27 120.24&#10;  Q 74.07 119.74 73.55 119.57&#10;  L 66.29 117.26&#10;  Q 67.72 113.15 70.75 108.03&#10;  Q 74.55 101.63 78.18 97.34&#10;  L 80.74 93.94&#10;  Q 81.07 93.50 80.57 93.27&#10;  Q 77.58 91.94 74.30 90.90&#10;  C 70.22 89.60 66.75 87.14 62.60 85.65&#10;  Q 54.62 82.79 48.80 80.37&#10;  Q 46.91 79.59 41.54 79.30&#10;  C 38.78 79.15 35.79 78.13 32.83 77.78&#10;  Q 30.86 71.40 26.72 66.21&#10;  C 27.12 65.36 28.39 63.10 29.69 62.48&#10;  Q 30.29 62.19 31.32 62.46&#10;  Q 52.69 68.04 73.51 76.36&#10;  Q 75.28 77.07 78.21 77.93&#10;  Q 80.94 78.73 82.73 79.62&#10;  A 2.24 2.23 42.3 0 0 84.91 79.52&#10;  C 87.87 77.65 90.73 74.86 93.03 73.20&#10;  Q 108.77 61.81 111.99 59.99&#10;  Q 116.21 57.60 121.92 54.04&#10;  Z" data-c-fill="0242dd"/>
<path fill="#022681" d="&#10;  M 197.94 62.24&#10;  L 204.71 65.15&#10;  Q 213.14 70.37 220.77 76.19&#10;  Q 224.92 79.36 227.75 82.33&#10;  Q 230.97 85.71 234.58 88.69&#10;  Q 236.71 90.45 240.41 94.80&#10;  Q 243.15 98.02 246.08 101.11&#10;  Q 244.26 101.05 243.24 101.98&#10;  Q 241.64 99.60 239.78 97.38&#10;  Q 238.64 96.03 237.68 94.27&#10;  Q 236.78 92.62 235.16 91.53&#10;  Q 233.63 90.51 231.68 88.69&#10;  Q 229.14 86.31 228.25 85.61&#10;  Q 221.17 80.01 220.22 79.28&#10;  Q 210.11 71.49 197.67 66.16&#10;  Q 193.32 64.30 186.43 63.12&#10;  Q 177.87 61.66 174.79 61.50&#10;  Q 158.65 60.65 148.75 62.01&#10;  Q 146.16 62.36 135.05 64.73&#10;  Q 127.41 66.35 121.67 68.62&#10;  Q 115.64 71.01 107.11 75.38&#10;  Q 102.27 77.86 99.49 79.83&#10;  Q 95.36 82.77 92.11 84.69&#10;  Q 91.04 85.32 91.49 84.23&#10;  C 91.62 83.92 92.01 83.36 92.37 83.12&#10;  Q 97.77 79.53 103.08 75.78&#10;  Q 105.75 73.90 111.41 70.36&#10;  Q 115.54 67.78 119.58 64.71&#10;  Q 124.51 62.75 129.79 60.80&#10;  Q 135.63 58.65 140.27 57.74&#10;  Q 149.24 55.98 156.26 55.82&#10;  Q 160.50 55.73 164.75 55.63&#10;  Q 167.52 55.56 169.90 55.95&#10;  Q 184.22 58.30 197.94 62.24&#10;  Z" data-c-fill="022681"/>
<path fill="#049cf7" d="&#10;  M 291.32 63.62&#10;  Q 291.00 63.66 290.79 63.76&#10;  A 0.64 0.62 -22.8 0 0 290.47 64.52&#10;  Q 291.64 68.16 293.31 71.59&#10;  Q 293.36 71.70 295.90 77.47&#10;  Q 297.14 80.28 299.45 84.06&#10;  Q 302.39 88.85 305.26 89.49&#10;  Q 309.11 94.12 311.75 101.00&#10;  Q 312.86 103.92 311.34 105.95&#10;  Q 310.97 106.45 307.90 108.84&#10;  Q 304.49 111.50 300.96 114.04&#10;  C 298.29 115.96 296.45 118.60 294.00 120.91&#10;  Q 296.93 109.07 297.20 105.26&#10;  Q 298.14 91.90 290.55 80.13&#10;  Q 285.17 71.79 278.67 68.47&#10;  Q 278.08 68.17 277.45 68.33&#10;  C 270.51 69.97 265.25 71.68 259.43 70.25&#10;  Q 267.02 67.50 269.46 66.92&#10;  Q 274.20 65.79 277.16 64.89&#10;  C 281.55 63.55 284.83 62.76 288.61 61.52&#10;  Q 289.11 61.36 289.47 61.73&#10;  L 291.32 63.62&#10;  Z" data-c-fill="049cf7"/>
<path fill="#56f1d5" d="&#10;  M 291.32 63.62&#10;  Q 294.92 69.20 297.08 75.49&#10;  Q 297.98 78.09 299.54 80.25&#10;  Q 302.64 84.53 305.26 89.49&#10;  Q 302.39 88.85 299.45 84.06&#10;  Q 297.14 80.28 295.90 77.47&#10;  Q 293.36 71.70 293.31 71.59&#10;  Q 291.64 68.16 290.47 64.52&#10;  A 0.64 0.62 -22.8 0 1 290.79 63.76&#10;  Q 291.00 63.66 291.32 63.62&#10;  Z" data-c-fill="56f1d5"/>
<path fill="#0075f7" d="&#10;  M 26.72 66.21&#10;  Q 30.86 71.40 32.83 77.78&#10;  Q 27.34 92.08 21.81 106.34&#10;  Q 21.24 107.80 21.43 109.41&#10;  Q 21.48 109.92 21.92 110.20&#10;  C 23.09 110.94 24.11 111.68 24.96 112.84&#10;  Q 26.78 115.31 28.55 117.79&#10;  Q 29.57 119.21 29.38 120.64&#10;  Q 29.17 122.31 27.94 123.71&#10;  Q 19.71 117.11 11.64 110.35&#10;  Q 8.87 108.02 6.71 105.30&#10;  Q 5.45 103.72 6.61 101.86&#10;  Q 15.00 88.41 15.86 86.07&#10;  Q 18.47 78.95 22.68 72.63&#10;  Q 24.78 69.47 26.72 66.21&#10;  Z" data-c-fill="0075f7"/>
<path fill="#0633d1" d="&#10;  M 78.18 97.34&#10;  L 78.11 96.93&#10;  A 0.56 0.52 -40.9 0 0 77.28 96.90&#10;  C 75.22 99.05 72.70 101.57 70.82 104.56&#10;  Q 65.99 112.21 64.92 114.39&#10;  Q 64.32 115.60 61.81 122.33&#10;  Q 60.60 125.55 58.47 130.13&#10;  Q 56.61 134.14 55.58 138.62&#10;  Q 53.03 149.80 53.58 161.50&#10;  Q 53.77 165.66 54.03 169.62&#10;  Q 51.48 171.71 50.07 175.12&#10;  Q 49.02 174.00 47.90 173.58&#10;  Q 47.72 164.78 47.43 156.25&#10;  Q 47.23 150.52 49.65 142.78&#10;  Q 50.53 142.42 50.76 141.91&#10;  A 1.95 1.94 25.9 0 0 49.88 139.38&#10;  C 48.07 138.45 45.70 137.44 44.19 136.16&#10;  Q 42.27 134.52 40.11 133.24&#10;  Q 38.38 132.22 36.05 130.16&#10;  Q 32.17 126.72 27.94 123.71&#10;  Q 29.17 122.31 29.38 120.64&#10;  Q 29.57 119.21 28.55 117.79&#10;  Q 26.78 115.31 24.96 112.84&#10;  C 24.11 111.68 23.09 110.94 21.92 110.20&#10;  Q 21.48 109.92 21.43 109.41&#10;  Q 21.24 107.80 21.81 106.34&#10;  Q 27.34 92.08 32.83 77.78&#10;  C 35.79 78.13 38.78 79.15 41.54 79.30&#10;  Q 46.91 79.59 48.80 80.37&#10;  Q 54.62 82.79 62.60 85.65&#10;  C 66.75 87.14 70.22 89.60 74.30 90.90&#10;  Q 77.58 91.94 80.57 93.27&#10;  Q 81.07 93.50 80.74 93.94&#10;  L 78.18 97.34&#10;  Z" data-c-fill="0633d1"/>
<path fill="#0c0903" d="&#10;  M 205.81 95.49&#10;  L 211.87 103.35&#10;  Q 212.17 103.75 212.16 104.24&#10;  Q 212.13 105.09 211.72 105.80&#10;  Q 211.34 105.38 211.01 105.42&#10;  Q 208.54 102.76 206.08 100.17&#10;  Q 203.44 97.39 200.56 96.16&#10;  C 198.50 95.18 196.56 94.35 194.70 93.05&#10;  Q 190.88 90.36 188.71 89.63&#10;  Q 175.48 85.17 162.04 83.77&#10;  C 159.52 83.51 156.64 84.31 154.03 84.37&#10;  Q 139.03 84.70 126.37 91.15&#10;  Q 119.69 94.56 116.72 96.04&#10;  C 115.01 96.89 113.13 98.10 111.98 99.23&#10;  Q 106.10 104.97 100.10 110.60&#10;  Q 97.78 112.78 95.95 116.49&#10;  Q 92.77 122.03 89.11 127.12&#10;  Q 87.23 129.74 85.51 135.11&#10;  Q 84.90 137.03 83.12 143.45&#10;  Q 80.15 154.16 80.01 160.23&#10;  Q 79.70 174.32 83.84 187.64&#10;  Q 86.02 194.67 89.79 200.76&#10;  Q 93.42 206.63 99.19 215.62&#10;  C 100.44 217.56 102.35 218.95 104.03 220.82&#10;  Q 105.07 221.98 107.34 223.73&#10;  Q 112.70 227.88 118.52 232.29&#10;  Q 118.70 232.42 124.19 235.83&#10;  Q 126.96 237.55 130.29 238.36&#10;  Q 131.89 238.74 138.54 240.58&#10;  C 149.84 243.69 162.45 243.94 172.98 242.20&#10;  Q 175.39 241.80 182.78 240.06&#10;  Q 188.45 238.72 192.23 236.88&#10;  Q 201.53 232.35 209.76 226.02&#10;  Q 220.36 217.87 226.74 206.38&#10;  C 228.31 203.54 229.41 201.94 231.37 199.26&#10;  Q 233.11 196.87 234.19 193.65&#10;  Q 243.07 167.17 234.16 140.87&#10;  Q 232.84 136.99 231.01 133.27&#10;  Q 228.21 127.59 227.27 125.81&#10;  Q 226.30 123.95 224.97 125.58&#10;  C 221.47 129.90 218.27 135.30 214.50 139.73&#10;  Q 210.85 144.03 206.69 149.95&#10;  Q 202.46 155.96 195.21 163.47&#10;  Q 193.97 164.75 192.17 168.34&#10;  Q 190.81 171.04 189.15 173.15&#10;  Q 183.64 180.15 180.50 183.88&#10;  C 178.29 186.51 176.78 190.09 174.76 192.51&#10;  Q 168.41 200.08 165.75 203.41&#10;  C 164.39 205.11 160.94 208.35 158.69 207.08&#10;  Q 148.94 201.59 140.11 194.08&#10;  Q 137.28 191.66 135.91 189.86&#10;  Q 134.34 187.79 131.74 185.33&#10;  Q 129.91 183.61 126.25 178.36&#10;  Q 121.92 172.15 117.24 167.52&#10;  Q 115.31 165.62 113.50 162.73&#10;  C 111.45 159.48 108.15 157.12 105.53 154.13&#10;  Q 104.77 153.25 103.39 152.53&#10;  Q 99.94 150.70 99.73 148.02&#10;  L 123.03 151.25&#10;  Q 135.51 154.21 148.52 154.37&#10;  L 159.27 154.59&#10;  Q 163.77 155.35 166.39 154.15&#10;  Q 170.95 152.04 175.18 147.03&#10;  Q 181.80 140.22 188.66 133.90&#10;  Q 190.20 132.49 192.06 130.32&#10;  Q 193.68 128.43 195.46 126.70&#10;  Q 200.14 122.13 200.74 121.49&#10;  Q 205.23 116.69 209.79 111.73&#10;  Q 209.95 114.62 205.72 118.21&#10;  Q 195.35 129.81 184.62 140.91&#10;  C 182.72 142.89 180.20 145.01 178.11 147.21&#10;  Q 174.21 150.76 170.78 154.76&#10;  C 168.52 157.39 166.49 158.19 163.31 158.35&#10;  Q 161.70 158.42 154.96 158.40&#10;  Q 151.13 158.39 146.61 158.00&#10;  Q 126.20 156.21 125.43 156.12&#10;  Q 117.46 155.16 110.90 153.14&#10;  Q 109.12 152.60 110.46 153.89&#10;  Q 118.86 162.01 124.85 169.48&#10;  C 127.27 172.51 130.75 175.31 132.94 177.06&#10;  Q 135.66 179.24 138.73 183.37&#10;  Q 141.16 186.65 144.04 189.48&#10;  Q 146.84 192.23 149.91 195.08&#10;  Q 153.56 198.32 158.22 200.30&#10;  A 2.88 2.86 -55.1 0 0 161.31 199.74&#10;  Q 166.39 194.93 172.47 187.88&#10;  Q 173.88 186.25 176.33 182.12&#10;  Q 178.14 179.07 180.49 176.48&#10;  C 184.05 172.57 186.38 170.39 188.60 166.98&#10;  Q 191.99 161.77 197.22 155.54&#10;  Q 201.66 150.25 206.15 144.35&#10;  Q 212.83 135.57 219.65 126.77&#10;  L 223.16 121.01&#10;  L 226.46 117.24&#10;  L 235.03 106.78&#10;  A 0.79 0.79 0.0 0 1 236.42 107.12&#10;  Q 236.64 108.17 235.97 109.28&#10;  Q 232.52 115.04 228.77 119.42&#10;  A 0.61 0.61 0.0 0 0 228.72 120.14&#10;  Q 233.82 127.93 238.23 137.55&#10;  Q 240.31 142.09 242.00 153.95&#10;  Q 243.05 165.56 242.69 173.13&#10;  Q 241.81 191.40 231.48 207.77&#10;  L 225.95 215.29&#10;  Q 221.01 222.34 216.11 226.11&#10;  Q 206.75 233.31 206.10 233.92&#10;  Q 203.70 236.15 200.40 237.27&#10;  Q 197.43 238.29 191.78 241.02&#10;  Q 188.19 242.75 175.50 246.22&#10;  Q 164.55 249.23 150.44 247.54&#10;  Q 134.65 245.65 118.97 237.69&#10;  C 116.65 236.51 114.32 234.68 112.28 232.71&#10;  Q 107.98 228.59 103.26 225.97&#10;  C 101.16 224.81 98.78 222.94 97.72 221.58&#10;  Q 96.28 219.73 94.46 216.51&#10;  C 92.44 212.95 89.75 209.99 87.26 206.76&#10;  Q 83.55 198.16 79.26 189.98&#10;  Q 77.11 185.89 75.46 177.04&#10;  Q 74.04 167.90 74.59 160.75&#10;  Q 74.85 157.37 76.19 147.14&#10;  Q 76.56 144.32 77.64 140.82&#10;  Q 78.57 137.79 79.32 134.55&#10;  Q 80.20 131.49 80.80 130.56&#10;  Q 84.53 124.70 85.55 122.99&#10;  Q 87.74 119.30 90.54 115.29&#10;  Q 94.21 110.88 98.44 106.21&#10;  Q 109.58 93.96 124.81 87.30&#10;  Q 126.53 86.54 134.35 83.83&#10;  Q 140.25 81.78 144.13 81.09&#10;  Q 154.68 79.22 162.00 79.76&#10;  Q 179.55 81.04 195.67 88.81&#10;  Q 198.63 90.24 205.81 95.49&#10;  Z" data-c-fill="0c0903"/>
<path fill="#56f1d5" d="&#10;  M 200.56 96.16&#10;  Q 196.12 95.71 191.87 94.30&#10;  Q 183.77 91.61 183.49 91.54&#10;  Q 175.99 89.54 173.00 89.04&#10;  Q 167.25 88.08 156.17 88.24&#10;  Q 144.69 88.41 132.57 93.83&#10;  Q 124.55 97.41 121.34 99.35&#10;  Q 110.39 105.94 95.95 116.49&#10;  Q 97.78 112.78 100.10 110.60&#10;  Q 106.10 104.97 111.98 99.23&#10;  C 113.13 98.10 115.01 96.89 116.72 96.04&#10;  Q 119.69 94.56 126.37 91.15&#10;  Q 139.03 84.70 154.03 84.37&#10;  C 156.64 84.31 159.52 83.51 162.04 83.77&#10;  Q 175.48 85.17 188.71 89.63&#10;  Q 190.88 90.36 194.70 93.05&#10;  C 196.56 94.35 198.50 95.18 200.56 96.16&#10;  Z" data-c-fill="56f1d5"/>
<path fill="#8bfefd" d="&#10;  M 200.56 96.16&#10;  Q 203.44 97.39 206.08 100.17&#10;  Q 208.54 102.76 211.01 105.42&#10;  C 210.50 107.53 208.85 107.83 207.67 108.82&#10;  Q 200.86 114.54 195.91 119.92&#10;  Q 188.80 127.65 182.81 132.85&#10;  C 181.58 133.92 181.15 135.43 179.92 136.60&#10;  Q 176.19 140.13 173.59 144.03&#10;  L 166.17 150.89&#10;  Q 152.04 148.90 138.10 149.53&#10;  Q 133.97 149.71 131.44 149.48&#10;  Q 127.30 149.10 124.76 149.15&#10;  Q 122.44 149.20 117.08 148.11&#10;  Q 112.67 147.21 109.31 147.13&#10;  C 106.76 147.06 104.31 146.55 102.18 146.10&#10;  Q 101.65 145.99 101.28 146.38&#10;  L 99.73 148.02&#10;  Q 99.94 150.70 103.39 152.53&#10;  Q 104.77 153.25 105.53 154.13&#10;  C 108.15 157.12 111.45 159.48 113.50 162.73&#10;  Q 115.31 165.62 117.24 167.52&#10;  Q 121.92 172.15 126.25 178.36&#10;  Q 129.91 183.61 131.74 185.33&#10;  Q 134.34 187.79 135.91 189.86&#10;  Q 137.28 191.66 140.11 194.08&#10;  Q 148.94 201.59 158.69 207.08&#10;  C 160.94 208.35 164.39 205.11 165.75 203.41&#10;  Q 168.41 200.08 174.76 192.51&#10;  C 176.78 190.09 178.29 186.51 180.50 183.88&#10;  Q 183.64 180.15 189.15 173.15&#10;  Q 190.81 171.04 192.17 168.34&#10;  Q 193.97 164.75 195.21 163.47&#10;  Q 202.46 155.96 206.69 149.95&#10;  Q 210.85 144.03 214.50 139.73&#10;  C 218.27 135.30 221.47 129.90 224.97 125.58&#10;  Q 226.30 123.95 227.27 125.81&#10;  Q 228.21 127.59 231.01 133.27&#10;  Q 232.84 136.99 234.16 140.87&#10;  Q 243.07 167.17 234.19 193.65&#10;  Q 233.11 196.87 231.37 199.26&#10;  C 229.41 201.94 228.31 203.54 226.74 206.38&#10;  Q 220.36 217.87 209.76 226.02&#10;  Q 201.53 232.35 192.23 236.88&#10;  Q 188.45 238.72 182.78 240.06&#10;  Q 175.39 241.80 172.98 242.20&#10;  C 162.45 243.94 149.84 243.69 138.54 240.58&#10;  Q 131.89 238.74 130.29 238.36&#10;  Q 126.96 237.55 124.19 235.83&#10;  Q 118.70 232.42 118.52 232.29&#10;  Q 112.70 227.88 107.34 223.73&#10;  Q 105.07 221.98 104.03 220.82&#10;  C 102.35 218.95 100.44 217.56 99.19 215.62&#10;  Q 93.42 206.63 89.79 200.76&#10;  Q 86.02 194.67 83.84 187.64&#10;  Q 79.70 174.32 80.01 160.23&#10;  Q 80.15 154.16 83.12 143.45&#10;  Q 84.90 137.03 85.51 135.11&#10;  Q 87.23 129.74 89.11 127.12&#10;  Q 92.77 122.03 95.95 116.49&#10;  Q 110.39 105.94 121.34 99.35&#10;  Q 124.55 97.41 132.57 93.83&#10;  Q 144.69 88.41 156.17 88.24&#10;  Q 167.25 88.08 173.00 89.04&#10;  Q 175.99 89.54 183.49 91.54&#10;  Q 183.77 91.61 191.87 94.30&#10;  Q 196.12 95.71 200.56 96.16&#10;  Z&#10;  M 111.61 132.70&#10;  Q 111.40 132.07 110.95 131.39&#10;  A 1.25 1.24 -36.1 0 0 109.13 131.11&#10;  Q 107.11 132.71 106.12 134.89&#10;  A 0.97 0.97 0.0 0 0 106.22 135.87&#10;  Q 107.07 137.02 108.52 137.82&#10;  Q 109.00 138.09 109.40 137.72&#10;  Q 111.18 136.12 113.85 136.69&#10;  A 0.81 0.79 -57.9 0 0 114.52 136.53&#10;  Q 115.06 136.10 114.83 135.55&#10;  Q 114.46 134.66 113.57 134.31&#10;  C 112.66 133.96 111.98 133.81 111.61 132.70&#10;  Z" data-c-fill="8bfefd"/>
<path fill="#48400e" d="&#10;  M 220.49 109.04&#10;  Q 222.90 113.62 226.46 117.24&#10;  L 223.16 121.01&#10;  Q 221.72 119.14 220.89 117.00&#10;  Q 219.66 113.87 218.96 112.88&#10;  Q 216.36 109.24 212.72 106.94&#10;  L 211.72 105.80&#10;  Q 212.13 105.09 212.16 104.24&#10;  Q 212.17 103.75 211.87 103.35&#10;  L 205.81 95.49&#10;  Q 213.75 100.90 220.49 109.04&#10;  Z" data-c-fill="48400e"/>
<path fill="#071c21" d="&#10;  M 78.18 97.34&#10;  Q 74.55 101.63 70.75 108.03&#10;  Q 67.72 113.15 66.29 117.26&#10;  L 65.16 119.97&#10;  Q 63.98 123.37 63.25 126.87&#10;  Q 62.44 130.78 61.48 133.77&#10;  Q 56.26 150.00 57.55 167.32&#10;  Q 58.24 180.39 62.14 192.88&#10;  Q 63.95 198.66 65.79 204.43&#10;  Q 66.39 206.27 69.72 211.66&#10;  Q 73.49 217.86 74.86 219.39&#10;  Q 77.87 222.78 80.65 226.29&#10;  Q 81.85 228.64 83.80 230.55&#10;  Q 83.99 231.00 83.81 231.39&#10;  Q 83.63 231.79 83.05 231.78&#10;  Q 78.12 225.64 72.42 220.21&#10;  Q 70.90 218.75 70.31 217.70&#10;  Q 69.41 216.10 68.52 214.99&#10;  Q 67.34 213.51 65.94 210.63&#10;  Q 60.29 199.06 59.47 196.76&#10;  Q 55.66 186.04 54.03 169.62&#10;  Q 53.77 165.66 53.58 161.50&#10;  Q 53.03 149.80 55.58 138.62&#10;  Q 56.61 134.14 58.47 130.13&#10;  Q 60.60 125.55 61.81 122.33&#10;  Q 64.32 115.60 64.92 114.39&#10;  Q 65.99 112.21 70.82 104.56&#10;  C 72.70 101.57 75.22 99.05 77.28 96.90&#10;  A 0.56 0.52 -40.9 0 1 78.11 96.93&#10;  L 78.18 97.34&#10;  Z" data-c-fill="071c21"/>
<path fill="#4940c8" d="&#10;  M 245.04 104.70&#10;  Q 249.95 111.14 252.69 117.05&#10;  Q 259.49 131.72 262.56 149.25&#10;  L 262.16 152.63&#10;  Q 262.10 153.09 261.74 152.82&#10;  L 256.79 149.16&#10;  A 1.55 1.54 41.7 0 0 254.81 149.27&#10;  C 253.29 150.69 252.06 151.42 249.98 151.89&#10;  Q 245.94 152.81 242.00 153.95&#10;  Q 240.31 142.09 238.23 137.55&#10;  Q 233.82 127.93 228.72 120.14&#10;  A 0.61 0.61 0.0 0 1 228.77 119.42&#10;  Q 232.52 115.04 235.97 109.28&#10;  Q 236.64 108.17 236.42 107.12&#10;  A 0.79 0.79 0.0 0 0 235.03 106.78&#10;  L 226.46 117.24&#10;  Q 222.90 113.62 220.49 109.04&#10;  L 226.57 98.88&#10;  A 1.01 1.00 -73.9 0 1 227.45 98.39&#10;  Q 230.17 98.44 232.86 99.06&#10;  Q 234.84 99.52 237.74 101.20&#10;  Q 241.23 103.23 245.04 104.70&#10;  Z&#10;  M 237.62 110.48&#10;  L 237.36 113.69&#10;  Q 237.32 114.16 237.57 114.55&#10;  Q 241.70 121.13 242.58 123.07&#10;  Q 243.56 125.23 245.76 127.23&#10;  Q 247.83 129.10 250.05 132.59&#10;  Q 251.26 134.50 251.10 132.25&#10;  Q 250.27 120.66 242.30 111.82&#10;  Q 240.44 109.75 237.54 109.98&#10;  Q 237.28 110.00 237.47 110.17&#10;  Q 237.58 110.27 237.62 110.42&#10;  Q 237.63 110.45 237.62 110.48&#10;  Z" data-c-fill="4940c8"/>
<path fill="#160625" d="&#10;  M 246.08 101.11&#10;  Q 247.78 104.13 249.66 107.03&#10;  Q 252.21 110.96 253.26 112.93&#10;  Q 258.12 122.01 261.38 131.75&#10;  L 265.09 146.50&#10;  L 265.46 152.09&#10;  Q 265.49 152.56 265.02 152.65&#10;  Q 263.76 152.90 263.16 152.09&#10;  Q 262.69 151.47 262.69 152.25&#10;  L 262.66 163.21&#10;  L 262.56 149.25&#10;  Q 259.49 131.72 252.69 117.05&#10;  Q 249.95 111.14 245.04 104.70&#10;  L 243.24 101.98&#10;  Q 244.26 101.05 246.08 101.11&#10;  Z" data-c-fill="160625"/>
<path fill="#feebd3" d="&#10;  M 211.72 105.80&#10;  L 212.72 106.94&#10;  Q 212.10 109.18 209.79 111.73&#10;  Q 205.23 116.69 200.74 121.49&#10;  Q 200.14 122.13 195.46 126.70&#10;  Q 193.68 128.43 192.06 130.32&#10;  Q 190.20 132.49 188.66 133.90&#10;  Q 181.80 140.22 175.18 147.03&#10;  L 173.59 144.03&#10;  Q 176.19 140.13 179.92 136.60&#10;  C 181.15 135.43 181.58 133.92 182.81 132.85&#10;  Q 188.80 127.65 195.91 119.92&#10;  Q 200.86 114.54 207.67 108.82&#10;  C 208.85 107.83 210.50 107.53 211.01 105.42&#10;  Q 211.34 105.38 211.72 105.80&#10;  Z" data-c-fill="feebd3"/>
<path fill="#07d4e9" d="&#10;  M 223.16 121.01&#10;  L 219.65 126.77&#10;  C 213.51 125.86 209.76 122.90 205.72 118.21&#10;  Q 209.95 114.62 209.79 111.73&#10;  Q 212.10 109.18 212.72 106.94&#10;  Q 216.36 109.24 218.96 112.88&#10;  Q 219.66 113.87 220.89 117.00&#10;  Q 221.72 119.14 223.16 121.01&#10;  Z" data-c-fill="07d4e9"/>
<path fill="#016eed" d="&#10;  M 237.62 110.42&#10;  Q 237.58 110.27 237.47 110.17&#10;  Q 237.28 110.00 237.54 109.98&#10;  Q 240.44 109.75 242.30 111.82&#10;  Q 250.27 120.66 251.10 132.25&#10;  Q 251.26 134.50 250.05 132.59&#10;  Q 247.83 129.10 245.76 127.23&#10;  Q 243.56 125.23 242.58 123.07&#10;  Q 241.70 121.13 237.57 114.55&#10;  Q 237.32 114.16 237.36 113.69&#10;  L 237.62 110.48&#10;  Q 237.63 110.45 237.62 110.42&#10;  Z" data-c-fill="0167ed"/>
<path fill="#3a2ded" d="&#10;  M 90.54 115.29&#10;  Q 87.74 119.30 85.55 122.99&#10;  Q 84.53 124.70 80.80 130.56&#10;  Q 80.20 131.49 79.32 134.55&#10;  Q 78.68 135.45 78.11 136.21&#10;  Q 77.67 136.80 76.69 137.66&#10;  Q 74.96 139.17 74.32 141.31&#10;  Q 70.51 153.97 71.62 167.81&#10;  L 57.55 167.32&#10;  Q 56.26 150.00 61.48 133.77&#10;  Q 62.44 130.78 63.25 126.87&#10;  Q 63.98 123.37 65.16 119.97&#10;  C 65.07 122.06 64.35 124.12 64.75 126.04&#10;  C 65.33 128.80 66.57 130.86 69.19 132.28&#10;  Q 70.66 133.08 72.38 134.30&#10;  A 0.84 0.84 0.0 0 0 73.66 133.90&#10;  Q 74.29 132.17 75.16 131.14&#10;  C 76.68 129.33 79.84 128.05 80.82 126.32&#10;  Q 82.60 123.21 80.07 123.00&#10;  Q 84.40 116.69 86.13 115.63&#10;  Q 89.40 113.63 90.54 115.29&#10;  Z" data-c-fill="3a2ded"/>
<path fill="#0075f7" d="&#10;  M 80.07 123.00&#10;  Q 82.60 123.21 80.82 126.32&#10;  C 79.84 128.05 76.68 129.33 75.16 131.14&#10;  Q 74.29 132.17 73.66 133.90&#10;  A 0.84 0.84 0.0 0 1 72.38 134.30&#10;  Q 70.66 133.08 69.19 132.28&#10;  C 66.57 130.86 65.33 128.80 64.75 126.04&#10;  C 64.35 124.12 65.07 122.06 65.16 119.97&#10;  L 66.29 117.26&#10;  L 73.55 119.57&#10;  Q 74.07 119.74 74.27 120.24&#10;  L 75.82 124.01&#10;  A 1.19 1.19 0.0 0 0 77.54 124.57&#10;  L 80.07 123.00&#10;  Z" data-c-fill="0075f7"/>
<path fill="#01a7c2" d="&#10;  M 205.72 118.21&#10;  C 209.76 122.90 213.51 125.86 219.65 126.77&#10;  Q 212.83 135.57 206.15 144.35&#10;  Q 201.66 150.25 197.22 155.54&#10;  Q 191.99 161.77 188.60 166.98&#10;  C 186.38 170.39 184.05 172.57 180.49 176.48&#10;  Q 178.14 179.07 176.33 182.12&#10;  Q 173.88 186.25 172.47 187.88&#10;  Q 166.39 194.93 161.31 199.74&#10;  A 2.88 2.86 -55.1 0 1 158.22 200.30&#10;  Q 153.56 198.32 149.91 195.08&#10;  Q 154.18 191.27 156.62 187.11&#10;  Q 163.74 175.00 170.89 162.89&#10;  Q 172.25 160.59 173.34 159.18&#10;  Q 175.65 156.17 175.97 155.65&#10;  Q 177.24 153.59 178.62 151.59&#10;  Q 178.90 151.18 178.80 150.68&#10;  L 178.11 147.21&#10;  C 180.20 145.01 182.72 142.89 184.62 140.91&#10;  Q 195.35 129.81 205.72 118.21&#10;  Z" data-c-fill="01a7c2"/>
<path fill="#faf1f3" d="&#10;  M 111.61 132.70&#10;  C 111.98 133.81 112.66 133.96 113.57 134.31&#10;  Q 114.46 134.66 114.83 135.55&#10;  Q 115.06 136.10 114.52 136.53&#10;  A 0.81 0.79 -57.9 0 1 113.85 136.69&#10;  Q 111.18 136.12 109.40 137.72&#10;  Q 109.00 138.09 108.52 137.82&#10;  Q 107.07 137.02 106.22 135.87&#10;  A 0.97 0.97 0.0 0 1 106.12 134.89&#10;  Q 107.11 132.71 109.13 131.11&#10;  A 1.25 1.24 -36.1 0 1 110.95 131.39&#10;  Q 111.40 132.07 111.61 132.70&#10;  Z" data-c-fill="faf1f3"/>
<path fill="#0633d1" d="&#10;  M 269.22 139.33&#10;  C 269.82 142.27 271.05 145.15 271.45 147.93&#10;  Q 273.30 160.79 272.27 171.03&#10;  Q 271.64 177.32 268.32 185.41&#10;  Q 266.72 185.61 266.91 183.48&#10;  Q 267.70 174.66 267.50 170.79&#10;  Q 267.20 165.28 267.03 159.76&#10;  Q 266.94 156.85 266.20 153.10&#10;  Q 265.55 149.83 265.09 146.50&#10;  L 261.38 131.75&#10;  Q 264.51 136.85 269.22 139.33&#10;  Z" data-c-fill="0633d1"/>
<path fill="#0633d1" d="&#10;  M 79.32 134.55&#10;  Q 78.57 137.79 77.64 140.82&#10;  Q 76.56 144.32 76.19 147.14&#10;  Q 74.85 157.37 74.59 160.75&#10;  Q 74.04 167.90 75.46 177.04&#10;  Q 72.94 176.39 72.33 173.00&#10;  Q 71.86 170.37 71.62 167.81&#10;  Q 70.51 153.97 74.32 141.31&#10;  Q 74.96 139.17 76.69 137.66&#10;  Q 77.67 136.80 78.11 136.21&#10;  Q 78.68 135.45 79.32 134.55&#10;  Z" data-c-fill="0633d1"/>
<path fill="#007260" d="&#10;  M 49.65 142.78&#10;  Q 47.23 150.52 47.43 156.25&#10;  Q 47.72 164.78 47.90 173.58&#10;  Q 46.56 167.49 46.11 161.05&#10;  Q 45.91 158.13 46.34 152.46&#10;  Q 46.65 148.30 46.63 143.85&#10;  L 47.50 142.83&#10;  Q 48.89 142.54 49.65 142.78&#10;  Z" data-c-fill="007260"/>
<path fill="#07240f" d="&#10;  M 46.63 143.85&#10;  Q 46.65 148.30 46.34 152.46&#10;  Q 45.91 158.13 46.11 161.05&#10;  Q 46.56 167.49 47.90 173.58&#10;  Q 49.02 174.00 50.07 175.12&#10;  Q 50.90 178.46 51.09 182.25&#10;  C 51.36 187.72 45.34 192.18 40.91 194.54&#10;  Q 38.87 195.63 35.88 197.83&#10;  Q 32.61 200.23 31.96 200.63&#10;  C 29.24 202.28 26.53 205.27 23.71 206.73&#10;  Q 20.91 208.18 19.12 209.68&#10;  Q 17.37 211.16 13.74 213.23&#10;  Q 11.99 214.22 9.66 217.89&#10;  Q 8.01 219.20 7.36 220.48&#10;  Q 5.53 222.10 5.78 223.02&#10;  C 7.66 230.06 13.58 236.07 17.48 242.62&#10;  C 23.68 253.04 27.29 258.02 29.91 264.19&#10;  A 1.01 1.00 66.6 0 0 31.24 264.72&#10;  Q 36.49 262.39 41.83 260.15&#10;  Q 44.77 258.91 52.61 256.01&#10;  Q 61.85 252.59 70.73 248.30&#10;  C 73.77 246.83 76.83 245.91 80.05 244.79&#10;  C 80.87 244.51 82.05 244.52 82.93 244.96&#10;  Q 85.27 246.12 87.47 247.21&#10;  L 91.50 250.40&#10;  C 94.72 252.69 97.53 255.79 100.68 257.62&#10;  Q 103.29 259.13 106.06 260.32&#10;  Q 110.85 262.37 111.58 262.71&#10;  Q 117.53 265.50 117.90 265.64&#10;  Q 118.28 265.79 118.82 265.89&#10;  Q 119.20 265.95 119.51 266.18&#10;  L 123.71 269.29&#10;  Q 124.13 269.61 124.20 270.12&#10;  L 124.44 271.96&#10;  Q 125.91 276.88 127.19 281.85&#10;  Q 128.25 285.97 130.05 291.69&#10;  Q 131.54 296.39 132.68 301.20&#10;  Q 132.92 302.24 134.69 307.60&#10;  Q 135.92 311.33 136.05 315.77&#10;  Q 136.75 317.44 136.87 319.80&#10;  Q 136.73 320.32 136.39 320.73&#10;  Q 135.61 321.33 134.88 320.97&#10;  Q 134.45 320.75 133.97 320.74&#10;  L 132.32 320.70&#10;  L 119.48 270.67&#10;  A 1.34 1.33 -2.9 0 0 118.38 269.68&#10;  C 117.04 269.49 115.46 269.42 113.96 268.83&#10;  Q 102.45 264.33 100.32 263.45&#10;  Q 96.90 262.05 94.15 257.72&#10;  A 2.18 2.14 -0.4 0 0 93.45 257.04&#10;  Q 87.26 253.36 83.56 250.45&#10;  Q 82.99 250.00 81.92 249.86&#10;  Q 81.26 249.78 80.28 250.28&#10;  Q 77.94 251.50 68.26 254.51&#10;  Q 65.39 255.40 56.87 259.08&#10;  Q 50.18 261.97 45.40 263.28&#10;  Q 38.57 265.16 33.86 267.45&#10;  Q 31.56 268.57 29.67 267.91&#10;  Q 26.38 266.75 24.97 264.17&#10;  Q 21.13 257.12 19.64 255.05&#10;  Q 16.77 251.05 14.87 247.20&#10;  Q 13.14 243.70 9.73 239.48&#10;  Q 6.85 235.92 5.56 232.65&#10;  Q 4.14 229.07 2.79 224.32&#10;  Q 2.19 222.21 3.04 220.24&#10;  Q 4.81 216.13 6.18 214.67&#10;  Q 7.39 213.37 11.01 210.98&#10;  C 14.29 208.81 16.45 206.89 19.64 204.29&#10;  Q 21.28 202.96 23.58 201.50&#10;  Q 29.99 197.45 36.26 191.50&#10;  Q 37.68 190.15 44.50 185.76&#10;  Q 45.79 184.94 46.21 182.86&#10;  Q 46.43 181.78 45.92 179.70&#10;  Q 42.99 167.66 43.42 154.51&#10;  Q 43.61 148.71 46.63 143.85&#10;  Z&#10;  M 111.2195 264.5952&#10;  A 0.69 0.69 0.0 0 0 110.8698 263.6842&#10;  L 99.2678 258.5186&#10;  A 0.69 0.69 0.0 0 0 98.3568 258.8683&#10;  L 98.3405 258.9048&#10;  A 0.69 0.69 0.0 0 0 98.6902 259.8158&#10;  L 110.2922 264.9814&#10;  A 0.69 0.69 0.0 0 0 111.2032 264.6317&#10;  L 111.2195 264.5952&#10;  Z" data-c-fill="07240f"/>
<path fill="#e9929c" d="&#10;  M 173.59 144.03&#10;  L 175.18 147.03&#10;  Q 170.95 152.04 166.39 154.15&#10;  Q 163.77 155.35 159.27 154.59&#10;  Q 163.57 153.48 166.17 150.89&#10;  L 173.59 144.03&#10;  Z" data-c-fill="e9929c"/>
<path fill="#faf1f3" d="&#10;  M 166.17 150.89&#10;  Q 163.57 153.48 159.27 154.59&#10;  L 148.52 154.37&#10;  Q 148.50 153.53 146.75 153.25&#10;  Q 134.99 151.32 123.03 151.25&#10;  L 99.73 148.02&#10;  L 101.28 146.38&#10;  Q 101.65 145.99 102.18 146.10&#10;  C 104.31 146.55 106.76 147.06 109.31 147.13&#10;  Q 112.67 147.21 117.08 148.11&#10;  Q 122.44 149.20 124.76 149.15&#10;  Q 127.30 149.10 131.44 149.48&#10;  Q 133.97 149.71 138.10 149.53&#10;  Q 152.04 148.90 166.17 150.89&#10;  Z" data-c-fill="faf1f3"/>
<path fill="#882ec4" d="&#10;  M 262.56 149.25&#10;  L 262.66 163.21&#10;  L 262.41 175.46&#10;  Q 260.74 179.27 260.27 183.31&#10;  Q 260.11 184.74 258.07 188.49&#10;  Q 250.31 193.04 246.19 200.79&#10;  Q 244.36 204.22 241.18 205.10&#10;  Q 240.08 205.41 236.33 205.80&#10;  Q 234.42 205.99 231.48 207.77&#10;  Q 241.81 191.40 242.69 173.13&#10;  Q 243.05 165.56 242.00 153.95&#10;  Q 245.94 152.81 249.98 151.89&#10;  C 252.06 151.42 253.29 150.69 254.81 149.27&#10;  A 1.55 1.54 41.7 0 1 256.79 149.16&#10;  L 261.74 152.82&#10;  Q 262.10 153.09 262.16 152.63&#10;  L 262.56 149.25&#10;  Z" data-c-fill="882ec4"/>
<path fill="#450181" d="&#10;  M 268.32 185.41&#10;  Q 268.33 185.70 268.50 185.77&#10;  Q 267.66 185.52 267.59 186.00&#10;  Q 267.17 189.04 265.00 190.81&#10;  Q 262.95 191.35 260.81 191.08&#10;  Q 260.21 191.01 260.36 190.42&#10;  C 260.64 189.32 261.34 188.60 261.55 187.32&#10;  Q 262.57 181.34 262.41 175.46&#10;  L 262.66 163.21&#10;  L 262.69 152.25&#10;  Q 262.69 151.47 263.16 152.09&#10;  Q 263.76 152.90 265.02 152.65&#10;  Q 265.49 152.56 265.46 152.09&#10;  L 265.09 146.50&#10;  Q 265.55 149.83 266.20 153.10&#10;  Q 266.94 156.85 267.03 159.76&#10;  Q 267.20 165.28 267.50 170.79&#10;  Q 267.70 174.66 266.91 183.48&#10;  Q 266.72 185.61 268.32 185.41&#10;  Z" data-c-fill="450181"/>
<path fill="#0077a1" d="&#10;  M 149.91 195.08&#10;  Q 146.84 192.23 144.04 189.48&#10;  Q 141.16 186.65 138.73 183.37&#10;  Q 135.66 179.24 132.94 177.06&#10;  C 130.75 175.31 127.27 172.51 124.85 169.48&#10;  Q 118.86 162.01 110.46 153.89&#10;  Q 109.12 152.60 110.90 153.14&#10;  Q 117.46 155.16 125.43 156.12&#10;  Q 126.20 156.21 146.61 158.00&#10;  Q 151.13 158.39 154.96 158.40&#10;  Q 161.70 158.42 163.31 158.35&#10;  C 166.49 158.19 168.52 157.39 170.78 154.76&#10;  Q 174.21 150.76 178.11 147.21&#10;  L 178.80 150.68&#10;  Q 178.90 151.18 178.62 151.59&#10;  Q 177.24 153.59 175.97 155.65&#10;  Q 175.65 156.17 173.34 159.18&#10;  Q 172.25 160.59 170.89 162.89&#10;  Q 163.74 175.00 156.62 187.11&#10;  Q 154.18 191.27 149.91 195.08&#10;  Z" data-c-fill="0077a1"/>
<path fill="#e9929c" d="&#10;  M 148.52 154.37&#10;  Q 135.51 154.21 123.03 151.25&#10;  Q 134.99 151.32 146.75 153.25&#10;  Q 148.50 153.53 148.52 154.37&#10;  Z" data-c-fill="e9929c"/>
<path fill="#781eef" d="&#10;  M 71.62 167.81&#10;  Q 71.86 170.37 72.33 173.00&#10;  Q 72.94 176.39 75.46 177.04&#10;  Q 77.11 185.89 79.26 189.98&#10;  Q 83.55 198.16 87.26 206.76&#10;  Q 78.17 207.91 69.72 211.66&#10;  Q 66.39 206.27 65.79 204.43&#10;  Q 63.95 198.66 62.14 192.88&#10;  Q 58.24 180.39 57.55 167.32&#10;  L 71.62 167.81&#10;  Z" data-c-fill="781eef"/>
<path fill="#aa07cd" d="&#10;  M 54.03 169.62&#10;  Q 55.66 186.04 59.47 196.76&#10;  Q 60.29 199.06 65.94 210.63&#10;  Q 67.34 213.51 68.52 214.99&#10;  Q 69.41 216.10 70.31 217.70&#10;  Q 70.90 218.75 72.42 220.21&#10;  Q 78.12 225.64 83.05 231.78&#10;  Q 84.25 233.40 85.78 234.70&#10;  Q 88.09 236.66 88.60 237.56&#10;  Q 89.47 239.10 90.67 240.52&#10;  A 1.28 1.24 -65.9 0 1 90.97 241.34&#10;  Q 90.95 242.43 91.72 242.90&#10;  Q 92.17 243.18 92.12 243.70&#10;  L 91.50 250.40&#10;  L 87.47 247.21&#10;  Q 89.11 247.36 90.25 246.98&#10;  Q 90.74 246.82 90.82 246.31&#10;  Q 91.00 245.14 90.72 243.99&#10;  Q 90.59 243.47 90.09 243.30&#10;  Q 88.55 242.79 87.59 241.92&#10;  C 85.30 239.87 81.93 239.69 79.41 241.16&#10;  Q 76.12 243.07 72.61 244.59&#10;  Q 68.79 246.23 68.74 246.26&#10;  Q 64.49 248.21 56.05 252.36&#10;  Q 52.74 253.99 49.69 255.09&#10;  Q 44.58 256.95 43.18 257.44&#10;  Q 42.04 257.84 40.19 258.92&#10;  Q 39.76 259.17 39.33 258.90&#10;  L 38.51 258.39&#10;  Q 37.57 257.12 36.01 256.46&#10;  Q 36.85 250.49 34.77 245.27&#10;  C 33.28 241.54 30.51 237.35 28.93 233.20&#10;  Q 27.12 228.45 23.91 221.92&#10;  C 22.64 219.31 21.48 216.21 20.26 213.47&#10;  A 0.61 0.61 0.0 0 0 19.44 213.16&#10;  L 9.66 217.89&#10;  Q 11.99 214.22 13.74 213.23&#10;  Q 17.37 211.16 19.12 209.68&#10;  Q 20.91 208.18 23.71 206.73&#10;  C 26.53 205.27 29.24 202.28 31.96 200.63&#10;  Q 32.61 200.23 35.88 197.83&#10;  Q 38.87 195.63 40.91 194.54&#10;  C 45.34 192.18 51.36 187.72 51.09 182.25&#10;  Q 50.90 178.46 50.07 175.12&#10;  Q 51.48 171.71 54.03 169.62&#10;  Z" data-c-fill="aa07cd"/>
<path fill="#7e048a" d="&#10;  M 262.41 175.46&#10;  Q 262.57 181.34 261.55 187.32&#10;  C 261.34 188.60 260.64 189.32 260.36 190.42&#10;  Q 260.21 191.01 260.81 191.08&#10;  Q 262.95 191.35 265.00 190.81&#10;  L 261.37 195.75&#10;  L 259.07 198.55&#10;  Q 258.84 198.83 258.50 198.97&#10;  L 258.01 199.17&#10;  Q 257.55 199.36 257.39 199.83&#10;  Q 256.87 201.38 254.59 204.30&#10;  Q 252.63 206.80 251.10 209.58&#10;  Q 248.88 213.61 247.99 215.09&#10;  Q 244.08 221.53 235.15 236.87&#10;  C 234.09 238.68 233.04 239.10 231.33 240.26&#10;  C 230.09 241.09 229.29 242.49 228.42 243.72&#10;  Q 217.46 253.21 203.99 258.33&#10;  A 0.57 0.57 0.0 0 1 203.22 257.84&#10;  Q 203.19 257.45 203.63 257.10&#10;  Q 208.06 253.56 213.68 249.94&#10;  Q 218.46 246.86 227.17 237.68&#10;  Q 235.63 228.17 241.00 216.82&#10;  C 242.27 214.14 244.07 212.25 246.11 210.30&#10;  Q 248.55 207.96 250.20 205.59&#10;  Q 255.64 197.77 258.07 188.49&#10;  Q 260.11 184.74 260.27 183.31&#10;  Q 260.74 179.27 262.41 175.46&#10;  Z" data-c-fill="7e048a"/>
<path fill="#ea2bc9" d="&#10;  M 268.50 185.77&#10;  L 270.51 188.42&#10;  Q 267.16 194.26 263.01 198.33&#10;  Q 260.67 200.62 261.31 197.41&#10;  Q 261.36 197.14 261.37 195.75&#10;  L 265.00 190.81&#10;  Q 267.17 189.04 267.59 186.00&#10;  Q 267.66 185.52 268.50 185.77&#10;  Z" data-c-fill="ea2bc9"/>
<path fill="#d31fa8" d="&#10;  M 273.48 190.91&#10;  Q 274.77 195.28 277.81 198.21&#10;  Q 281.79 202.05 284.55 205.08&#10;  Q 287.07 207.85 289.47 209.55&#10;  C 292.09 211.42 295.69 213.09 297.70 217.04&#10;  Q 298.36 218.34 302.61 220.68&#10;  Q 305.68 222.36 306.20 223.22&#10;  Q 306.52 223.74 306.48 224.17&#10;  Q 306.27 226.74 304.10 228.65&#10;  Q 299.61 232.59 297.60 237.89&#10;  Q 296.60 240.53 295.67 242.90&#10;  Q 295.01 244.57 293.82 245.81&#10;  Q 291.64 248.08 291.51 248.25&#10;  Q 288.19 252.51 287.06 254.06&#10;  Q 284.70 257.30 283.29 260.55&#10;  A 1.69 1.69 0.0 0 0 284.42 262.86&#10;  Q 285.19 263.05 285.04 263.59&#10;  Q 279.26 262.84 273.23 259.53&#10;  Q 268.76 257.08 262.06 254.93&#10;  Q 255.23 252.74 250.80 250.86&#10;  Q 245.76 248.72 239.41 246.59&#10;  Q 237.14 245.83 235.48 245.91&#10;  Q 233.52 245.99 231.61 245.84&#10;  Q 230.49 245.74 229.66 246.52&#10;  C 226.78 249.22 224.84 251.43 221.15 253.68&#10;  Q 215.75 256.98 210.65 260.11&#10;  Q 210.13 259.43 207.38 260.35&#10;  C 211.92 256.34 217.32 253.62 222.43 250.45&#10;  Q 224.11 249.41 228.42 243.72&#10;  C 229.29 242.49 230.09 241.09 231.33 240.26&#10;  C 233.04 239.10 234.09 238.68 235.15 236.87&#10;  Q 244.08 221.53 247.99 215.09&#10;  Q 248.88 213.61 251.10 209.58&#10;  Q 252.63 206.80 254.59 204.30&#10;  Q 256.87 201.38 257.39 199.83&#10;  Q 257.55 199.36 258.01 199.17&#10;  L 258.50 198.97&#10;  Q 258.84 198.83 259.07 198.55&#10;  L 261.37 195.75&#10;  Q 261.36 197.14 261.31 197.41&#10;  Q 260.67 200.62 263.01 198.33&#10;  Q 267.16 194.26 270.51 188.42&#10;  L 273.48 190.91&#10;  Z" data-c-fill="d31fa8"/>
<path fill="#bf14bd" d="&#10;  M 258.07 188.49&#10;  Q 255.64 197.77 250.20 205.59&#10;  Q 248.55 207.96 246.11 210.30&#10;  C 244.07 212.25 242.27 214.14 241.00 216.82&#10;  Q 235.63 228.17 227.17 237.68&#10;  Q 224.47 239.09 221.83 240.42&#10;  Q 214.20 244.28 206.50 248.02&#10;  Q 204.94 248.77 199.95 249.92&#10;  L 200.81 249.64&#10;  A 0.02 0.01 30.1 0 0 200.80 249.61&#10;  Q 199.65 249.72 199.12 249.59&#10;  Q 197.66 249.23 199.15 248.62&#10;  C 202.61 247.20 204.94 245.86 206.44 242.22&#10;  C 208.04 238.33 210.12 234.53 213.08 231.58&#10;  Q 219.11 225.54 222.18 222.42&#10;  Q 224.15 220.41 225.95 215.29&#10;  L 231.48 207.77&#10;  Q 234.42 205.99 236.33 205.80&#10;  Q 240.08 205.41 241.18 205.10&#10;  Q 244.36 204.22 246.19 200.79&#10;  Q 250.31 193.04 258.07 188.49&#10;  Z" data-c-fill="bf14bd"/>
<path fill="#fda8ec" d="&#10;  M 285.04 263.59&#10;  Q 285.19 263.05 284.42 262.86&#10;  A 1.69 1.69 0.0 0 1 283.29 260.55&#10;  Q 284.70 257.30 287.06 254.06&#10;  Q 288.19 252.51 291.51 248.25&#10;  Q 291.64 248.08 293.82 245.81&#10;  Q 295.01 244.57 295.67 242.90&#10;  Q 296.60 240.53 297.60 237.89&#10;  Q 299.61 232.59 304.10 228.65&#10;  Q 306.27 226.74 306.48 224.17&#10;  Q 306.52 223.74 306.20 223.22&#10;  Q 305.68 222.36 302.61 220.68&#10;  Q 298.36 218.34 297.70 217.04&#10;  C 295.69 213.09 292.09 211.42 289.47 209.55&#10;  Q 287.07 207.85 284.55 205.08&#10;  Q 281.79 202.05 277.81 198.21&#10;  Q 274.77 195.28 273.48 190.91&#10;  Q 276.62 193.20 279.58 195.53&#10;  Q 282.01 197.44 285.23 200.69&#10;  Q 289.33 204.82 295.01 207.99&#10;  Q 302.48 212.15 311.63 218.14&#10;  Q 312.40 218.65 312.71 219.87&#10;  Q 312.92 220.70 312.70 221.76&#10;  Q 311.64 226.89 307.48 231.23&#10;  Q 306.54 232.20 303.04 237.68&#10;  Q 300.86 241.08 299.42 244.61&#10;  Q 298.73 246.31 295.56 253.34&#10;  Q 293.62 257.66 290.80 261.54&#10;  Q 288.08 265.27 285.04 263.59&#10;  Z" data-c-fill="fda8ec"/>
<path fill="#aa07cd" d="&#10;  M 87.26 206.76&#10;  C 89.75 209.99 92.44 212.95 94.46 216.51&#10;  Q 96.28 219.73 97.72 221.58&#10;  C 98.78 222.94 101.16 224.81 103.26 225.97&#10;  Q 107.98 228.59 112.28 232.71&#10;  C 114.32 234.68 116.65 236.51 118.97 237.69&#10;  Q 134.65 245.65 150.44 247.54&#10;  Q 164.55 249.23 175.50 246.22&#10;  Q 188.19 242.75 191.78 241.02&#10;  Q 197.43 238.29 200.40 237.27&#10;  Q 203.70 236.15 206.10 233.92&#10;  Q 206.75 233.31 216.11 226.11&#10;  Q 221.01 222.34 225.95 215.29&#10;  Q 224.15 220.41 222.18 222.42&#10;  Q 219.11 225.54 213.08 231.58&#10;  C 210.12 234.53 208.04 238.33 206.44 242.22&#10;  C 204.94 245.86 202.61 247.20 199.15 248.62&#10;  Q 197.66 249.23 199.12 249.59&#10;  Q 199.65 249.72 200.80 249.61&#10;  A 0.02 0.01 30.1 0 1 200.81 249.64&#10;  L 199.95 249.92&#10;  C 195.49 251.77 190.79 252.98 185.90 252.34&#10;  Q 183.07 251.97 180.23 251.53&#10;  Q 178.07 251.20 172.88 252.32&#10;  Q 168.82 253.19 165.56 253.28&#10;  Q 148.14 253.80 142.36 254.65&#10;  Q 131.45 256.27 125.98 256.17&#10;  Q 123.14 256.13 120.32 255.88&#10;  Q 117.30 255.61 114.68 255.62&#10;  Q 108.63 255.63 102.74 254.38&#10;  C 101.20 254.05 100.42 253.06 99.73 251.78&#10;  Q 97.72 248.03 95.61 243.46&#10;  Q 99.02 244.57 102.22 245.38&#10;  Q 106.28 246.40 108.85 247.30&#10;  Q 118.70 250.72 128.91 252.87&#10;  Q 129.59 253.01 132.36 253.38&#10;  Q 132.92 253.46 132.58 253.01&#10;  Q 131.96 252.20 130.90 251.88&#10;  Q 120.84 248.86 115.84 247.12&#10;  Q 112.75 246.04 109.24 243.76&#10;  Q 106.52 241.98 102.78 240.38&#10;  Q 99.21 238.84 96.10 237.45&#10;  Q 87.26 233.49 80.65 226.29&#10;  Q 77.87 222.78 74.86 219.39&#10;  Q 73.49 217.86 69.72 211.66&#10;  Q 78.17 207.91 87.26 206.76&#10;  Z" data-c-fill="aa07cd"/>
<path fill="#af33e2" d="&#10;  M 36.01 256.46&#10;  Q 34.20 256.09 32.25 256.83&#10;  Q 22.05 239.40 17.71 231.53&#10;  Q 13.54 223.98 7.36 220.48&#10;  Q 8.01 219.20 9.66 217.89&#10;  L 19.44 213.16&#10;  A 0.61 0.61 0.0 0 1 20.26 213.47&#10;  C 21.48 216.21 22.64 219.31 23.91 221.92&#10;  Q 27.12 228.45 28.93 233.20&#10;  C 30.51 237.35 33.28 241.54 34.77 245.27&#10;  Q 36.85 250.49 36.01 256.46&#10;  Z" data-c-fill="af33e2"/>
<path fill="#ea2bc9" d="&#10;  M 7.36 220.48&#10;  Q 13.54 223.98 17.71 231.53&#10;  Q 22.05 239.40 32.25 256.83&#10;  Q 35.23 259.58 37.76 259.30&#10;  Q 38.36 259.24 38.51 258.39&#10;  L 39.33 258.90&#10;  Q 39.76 259.17 40.19 258.92&#10;  Q 42.04 257.84 43.18 257.44&#10;  Q 44.58 256.95 49.69 255.09&#10;  Q 52.74 253.99 56.05 252.36&#10;  Q 64.49 248.21 68.74 246.26&#10;  Q 68.79 246.23 72.61 244.59&#10;  Q 76.12 243.07 79.41 241.16&#10;  C 81.93 239.69 85.30 239.87 87.59 241.92&#10;  Q 88.55 242.79 90.09 243.30&#10;  Q 90.59 243.47 90.72 243.99&#10;  Q 91.00 245.14 90.82 246.31&#10;  Q 90.74 246.82 90.25 246.98&#10;  Q 89.11 247.36 87.47 247.21&#10;  Q 85.27 246.12 82.93 244.96&#10;  C 82.05 244.52 80.87 244.51 80.05 244.79&#10;  C 76.83 245.91 73.77 246.83 70.73 248.30&#10;  Q 61.85 252.59 52.61 256.01&#10;  Q 44.77 258.91 41.83 260.15&#10;  Q 36.49 262.39 31.24 264.72&#10;  A 1.01 1.00 66.6 0 1 29.91 264.19&#10;  C 27.29 258.02 23.68 253.04 17.48 242.62&#10;  C 13.58 236.07 7.66 230.06 5.78 223.02&#10;  Q 5.53 222.10 7.36 220.48&#10;  Z" data-c-fill="ea2bc9"/>
<path fill="#882ec4" d="&#10;  M 95.61 243.46&#10;  Q 91.23 238.26 86.19 232.57&#10;  Q 85.66 231.98 83.80 230.55&#10;  Q 81.85 228.64 80.65 226.29&#10;  Q 87.26 233.49 96.10 237.45&#10;  Q 99.21 238.84 102.78 240.38&#10;  Q 106.52 241.98 109.24 243.76&#10;  Q 112.75 246.04 115.84 247.12&#10;  Q 120.84 248.86 130.90 251.88&#10;  Q 131.96 252.20 132.58 253.01&#10;  Q 132.92 253.46 132.36 253.38&#10;  Q 129.59 253.01 128.91 252.87&#10;  Q 118.70 250.72 108.85 247.30&#10;  Q 106.28 246.40 102.22 245.38&#10;  Q 99.02 244.57 95.61 243.46&#10;  Z" data-c-fill="882ec4"/>
<path fill="#7e048a" d="&#10;  M 95.61 243.46&#10;  Q 97.72 248.03 99.73 251.78&#10;  C 100.42 253.06 101.20 254.05 102.74 254.38&#10;  Q 108.63 255.63 114.68 255.62&#10;  Q 117.30 255.61 120.32 255.88&#10;  Q 123.14 256.13 125.98 256.17&#10;  C 123.62 260.82 124.66 265.72 125.60 271.06&#10;  L 125.01 271.11&#10;  Q 124.58 271.14 124.51 271.57&#10;  L 124.44 271.96&#10;  L 124.20 270.12&#10;  Q 124.13 269.61 123.71 269.29&#10;  L 119.51 266.18&#10;  Q 119.20 265.95 118.82 265.89&#10;  Q 118.28 265.79 117.90 265.64&#10;  Q 117.53 265.50 111.58 262.71&#10;  Q 110.85 262.37 106.06 260.32&#10;  Q 103.29 259.13 100.68 257.62&#10;  C 97.53 255.79 94.72 252.69 91.50 250.40&#10;  L 92.12 243.70&#10;  Q 92.17 243.18 91.72 242.90&#10;  Q 90.95 242.43 90.97 241.34&#10;  A 1.28 1.24 -65.9 0 0 90.67 240.52&#10;  Q 89.47 239.10 88.60 237.56&#10;  Q 88.09 236.66 85.78 234.70&#10;  Q 84.25 233.40 83.05 231.78&#10;  Q 83.63 231.79 83.81 231.39&#10;  Q 83.99 231.00 83.80 230.55&#10;  Q 85.66 231.98 86.19 232.57&#10;  Q 91.23 238.26 95.61 243.46&#10;  Z" data-c-fill="7e048a"/>
<path fill="#a91692" d="&#10;  M 227.17 237.68&#10;  Q 218.46 246.86 213.68 249.94&#10;  Q 208.06 253.56 203.63 257.10&#10;  Q 203.19 257.45 203.22 257.84&#10;  A 0.57 0.57 0.0 0 0 203.99 258.33&#10;  Q 217.46 253.21 228.42 243.72&#10;  Q 224.11 249.41 222.43 250.45&#10;  C 217.32 253.62 211.92 256.34 207.38 260.35&#10;  Q 204.37 261.42 200.50 263.75&#10;  Q 198.22 265.13 195.27 265.60&#10;  Q 192.87 265.24 191.12 267.61&#10;  Q 189.66 269.59 191.02 272.48&#10;  Q 187.19 273.31 185.73 273.40&#10;  Q 171.38 274.36 157.00 274.11&#10;  Q 150.87 274.01 142.49 273.24&#10;  Q 135.22 272.57 128.01 271.94&#10;  Q 126.78 271.17 125.60 271.06&#10;  C 124.66 265.72 123.62 260.82 125.98 256.17&#10;  Q 131.45 256.27 142.36 254.65&#10;  Q 148.14 253.80 165.56 253.28&#10;  Q 168.82 253.19 172.88 252.32&#10;  Q 178.07 251.20 180.23 251.53&#10;  Q 183.07 251.97 185.90 252.34&#10;  C 190.79 252.98 195.49 251.77 199.95 249.92&#10;  Q 204.94 248.77 206.50 248.02&#10;  Q 214.20 244.28 221.83 240.42&#10;  Q 224.47 239.09 227.17 237.68&#10;  Z" data-c-fill="a91692"/>
<path fill="#fda8ec" d="&#10;  M 36.01 256.46&#10;  Q 37.57 257.12 38.51 258.39&#10;  Q 38.36 259.24 37.76 259.30&#10;  Q 35.23 259.58 32.25 256.83&#10;  Q 34.20 256.09 36.01 256.46&#10;  Z" data-c-fill="fda8ec"/>
<rect fill="#007260" x="-7.04" y="-0.71" transform="translate(104.78,261.75) rotate(24.0)" width="14.08" height="1.42" rx="0.69" data-c-fill="007260"/>
<path fill="#fda8ec" d="&#10;  M 210.65 260.11&#10;  C 206.60 263.18 202.27 264.51 197.84 266.36&#10;  Q 197.01 266.71 196.45 266.69&#10;  Q 195.24 266.66 195.27 265.60&#10;  Q 198.22 265.13 200.50 263.75&#10;  Q 204.37 261.42 207.38 260.35&#10;  Q 210.13 259.43 210.65 260.11&#10;  Z" data-c-fill="fda8ec"/>
<path fill="#ea2bc9" d="&#10;  M 125.60 271.06&#10;  Q 126.78 271.17 128.01 271.94&#10;  Q 129.57 272.91 129.94 275.11&#10;  Q 132.97 293.13 137.50 309.13&#10;  Q 138.07 311.12 137.62 312.56&#10;  Q 137.12 314.17 136.05 315.77&#10;  Q 135.92 311.33 134.69 307.60&#10;  Q 132.92 302.24 132.68 301.20&#10;  Q 131.54 296.39 130.05 291.69&#10;  Q 128.25 285.97 127.19 281.85&#10;  Q 125.91 276.88 124.44 271.96&#10;  L 124.51 271.57&#10;  Q 124.58 271.14 125.01 271.11&#10;  L 125.60 271.06&#10;  Z" data-c-fill="ea2bc9"/>
<path fill="#e53294" d="&#10;  M 191.02 272.48&#10;  L 192.51 272.60&#10;  Q 190.80 274.53 190.66 275.94&#10;  Q 190.14 281.42 187.98 286.46&#10;  Q 187.79 286.91 187.41 287.21&#10;  Q 187.01 287.54 186.88 288.08&#10;  C 186.00 291.67 184.48 295.49 183.92 299.02&#10;  Q 182.36 308.73 179.64 318.16&#10;  Q 179.49 318.66 179.86 319.02&#10;  Q 180.37 319.52 181.50 319.70&#10;  L 137.21 320.13&#10;  Q 137.08 320.13 137.01 320.02&#10;  Q 136.94 319.90 136.87 319.80&#10;  Q 136.75 317.44 136.05 315.77&#10;  Q 137.12 314.17 137.62 312.56&#10;  Q 138.07 311.12 137.50 309.13&#10;  Q 132.97 293.13 129.94 275.11&#10;  Q 129.57 272.91 128.01 271.94&#10;  Q 135.22 272.57 142.49 273.24&#10;  Q 150.87 274.01 157.00 274.11&#10;  Q 171.38 274.36 185.73 273.40&#10;  Q 187.19 273.31 191.02 272.48&#10;  Z" data-c-fill="e53294"/>
<path fill="#faf1f3" d="&#10;  M 182.46 319.55&#10;  Q 181.87 319.54 181.50 319.70&#10;  Q 180.37 319.52 179.86 319.02&#10;  Q 179.49 318.66 179.64 318.16&#10;  Q 182.36 308.73 183.92 299.02&#10;  C 184.48 295.49 186.00 291.67 186.88 288.08&#10;  Q 187.01 287.54 187.41 287.21&#10;  Q 187.79 286.91 187.98 286.46&#10;  Q 190.14 281.42 190.66 275.94&#10;  Q 190.80 274.53 192.51 272.60&#10;  Q 193.14 272.49 193.43 272.61&#10;  A 0.59 0.55 16.5 0 1 193.77 273.19&#10;  Q 192.46 283.41 190.06 291.52&#10;  Q 188.50 296.81 188.02 299.73&#10;  Q 187.31 304.08 185.74 307.90&#10;  Q 185.07 309.55 184.17 313.72&#10;  Q 183.52 316.71 182.46 319.55&#10;  Z" data-c-fill="faf1f3"/>
<path fill="#b70c3f" d="&#10;  M 182.46 319.55&#10;  Q 182.64 321.17 181.98 321.95&#10;  Q 181.64 322.34 181.13 322.33&#10;  Q 165.63 322.13 149.42 321.96&#10;  Q 147.83 321.94 143.61 322.22&#10;  Q 140.52 322.43 137.76 322.12&#10;  Q 136.39 321.97 136.39 320.73&#10;  Q 136.73 320.32 136.87 319.80&#10;  Q 136.94 319.90 137.01 320.02&#10;  Q 137.08 320.13 137.21 320.13&#10;  L 181.50 319.70&#10;  Q 181.87 319.54 182.46 319.55&#10;  Z" data-c-fill="b70c3f"/>
</svg>